<mxfile host="app.diagrams.net" modified="2021-12-30T05:13:14.515Z" agent="5.0 (Windows NT 10.0; Win64; x64) AppleWebKit/537.36 (KHTML, like Gecko) Chrome/96.0.4664.110 Safari/537.36" etag="1Ku1qYjs5ye_kBQQEV3j" version="16.1.0" type="github" pages="2">
  <diagram id="rVE9AglqgYddIuh11Cyf" name="第 1 页">
    <mxGraphModel dx="2370" dy="1270" grid="1" gridSize="10" guides="1" tooltips="1" connect="1" arrows="1" fold="1" page="1" pageScale="1" pageWidth="827" pageHeight="1169" math="0" shadow="0">
      <root>
        <mxCell id="0" />
        <mxCell id="1" parent="0" />
        <mxCell id="vVe2Fx5Xyn_7vQ3Fg-Rb-41" value="" style="rounded=0;whiteSpace=wrap;html=1;fontSize=16;fontColor=#000000;strokeColor=#67AB9F;fillColor=#FFFFFF;strokeWidth=2;" vertex="1" parent="1">
          <mxGeometry x="100" y="350" width="1280" height="90" as="geometry" />
        </mxCell>
        <mxCell id="vVe2Fx5Xyn_7vQ3Fg-Rb-42" value="" style="rounded=0;whiteSpace=wrap;html=1;fontSize=16;fontColor=#000000;strokeColor=#67AB9F;fillColor=#FFFFFF;strokeWidth=2;" vertex="1" parent="1">
          <mxGeometry x="100" y="450" width="1280" height="90" as="geometry" />
        </mxCell>
        <mxCell id="vVe2Fx5Xyn_7vQ3Fg-Rb-40" value="" style="rounded=0;whiteSpace=wrap;html=1;fontSize=16;fontColor=#000000;strokeColor=#67AB9F;fillColor=#FFFFFF;strokeWidth=2;" vertex="1" parent="1">
          <mxGeometry x="100" y="250" width="1280" height="90" as="geometry" />
        </mxCell>
        <mxCell id="vVe2Fx5Xyn_7vQ3Fg-Rb-39" value="" style="rounded=0;whiteSpace=wrap;html=1;fontSize=16;fontColor=#000000;strokeColor=#67AB9F;fillColor=#FFFFFF;strokeWidth=2;" vertex="1" parent="1">
          <mxGeometry x="100" y="150" width="1280" height="90" as="geometry" />
        </mxCell>
        <mxCell id="vVe2Fx5Xyn_7vQ3Fg-Rb-1" value="" style="rounded=1;whiteSpace=wrap;html=1;fillColor=#D6D6D6;fontColor=#333333;strokeColor=#F7F7F7;" vertex="1" parent="1">
          <mxGeometry x="100" y="30" width="1280" height="110" as="geometry" />
        </mxCell>
        <mxCell id="vVe2Fx5Xyn_7vQ3Fg-Rb-2" value="&lt;font color=&quot;#ffffff&quot; size=&quot;1&quot;&gt;&lt;span style=&quot;font-size: 25px&quot;&gt;供水企业业务管理制度&lt;/span&gt;&lt;/font&gt;" style="rounded=1;whiteSpace=wrap;html=1;strokeColor=#FFFFFF;fillColor=#8DCACC;" vertex="1" parent="1">
          <mxGeometry x="30" y="30" width="50" height="1140" as="geometry" />
        </mxCell>
        <mxCell id="vVe2Fx5Xyn_7vQ3Fg-Rb-5" value="电脑端" style="text;html=1;strokeColor=none;fillColor=none;align=center;verticalAlign=middle;whiteSpace=wrap;rounded=0;" vertex="1" parent="1">
          <mxGeometry x="235" y="100" width="60" height="30" as="geometry" />
        </mxCell>
        <mxCell id="vVe2Fx5Xyn_7vQ3Fg-Rb-7" value="手机端" style="text;html=1;strokeColor=none;fillColor=none;align=center;verticalAlign=middle;whiteSpace=wrap;rounded=0;" vertex="1" parent="1">
          <mxGeometry x="720" y="100" width="60" height="30" as="geometry" />
        </mxCell>
        <mxCell id="vVe2Fx5Xyn_7vQ3Fg-Rb-9" value="平板端" style="text;html=1;strokeColor=none;fillColor=none;align=center;verticalAlign=middle;whiteSpace=wrap;rounded=0;" vertex="1" parent="1">
          <mxGeometry x="475" y="100" width="60" height="30" as="geometry" />
        </mxCell>
        <mxCell id="vVe2Fx5Xyn_7vQ3Fg-Rb-11" value="大屏端" style="text;html=1;strokeColor=none;fillColor=none;align=center;verticalAlign=middle;whiteSpace=wrap;rounded=0;" vertex="1" parent="1">
          <mxGeometry x="965" y="100" width="60" height="30" as="geometry" />
        </mxCell>
        <mxCell id="vVe2Fx5Xyn_7vQ3Fg-Rb-13" value="VR/AR端" style="text;html=1;strokeColor=none;fillColor=none;align=center;verticalAlign=middle;whiteSpace=wrap;rounded=0;" vertex="1" parent="1">
          <mxGeometry x="1206" y="100" width="60" height="30" as="geometry" />
        </mxCell>
        <mxCell id="vVe2Fx5Xyn_7vQ3Fg-Rb-14" value="&lt;font style=&quot;font-size: 16px&quot; color=&quot;#ffffff&quot;&gt;供水管网漏损分析管理平台&lt;/font&gt;" style="rounded=0;whiteSpace=wrap;html=1;strokeColor=#FFFFFF;fillColor=#8DCACC;" vertex="1" parent="1">
          <mxGeometry x="210" y="160" width="201" height="70" as="geometry" />
        </mxCell>
        <mxCell id="vVe2Fx5Xyn_7vQ3Fg-Rb-15" value="&lt;font style=&quot;font-size: 16px&quot; color=&quot;#ffffff&quot;&gt;供水管网水力模型系统&lt;/font&gt;" style="rounded=0;whiteSpace=wrap;html=1;strokeColor=#FFFFFF;fillColor=#8DCACC;" vertex="1" parent="1">
          <mxGeometry x="440" y="160" width="201" height="70" as="geometry" />
        </mxCell>
        <mxCell id="vVe2Fx5Xyn_7vQ3Fg-Rb-16" value="&lt;font style=&quot;font-size: 16px&quot; color=&quot;#ffffff&quot;&gt;抢险应急指挥系统&lt;/font&gt;" style="rounded=0;whiteSpace=wrap;html=1;strokeColor=#FFFFFF;fillColor=#8DCACC;" vertex="1" parent="1">
          <mxGeometry x="670" y="160" width="201" height="70" as="geometry" />
        </mxCell>
        <mxCell id="vVe2Fx5Xyn_7vQ3Fg-Rb-17" value="&lt;font color=&quot;#ffffff&quot;&gt;&lt;span style=&quot;font-size: 16px&quot;&gt;智慧供水综合运营平台&lt;/span&gt;&lt;/font&gt;" style="rounded=0;whiteSpace=wrap;html=1;strokeColor=#FFFFFF;fillColor=#8DCACC;" vertex="1" parent="1">
          <mxGeometry x="899" y="160" width="201" height="70" as="geometry" />
        </mxCell>
        <mxCell id="vVe2Fx5Xyn_7vQ3Fg-Rb-18" value="&lt;font color=&quot;#ffffff&quot;&gt;&lt;span style=&quot;font-size: 16px&quot;&gt;智慧供水大屏展示系统&lt;/span&gt;&lt;/font&gt;" style="rounded=0;whiteSpace=wrap;html=1;strokeColor=#FFFFFF;fillColor=#8DCACC;" vertex="1" parent="1">
          <mxGeometry x="1134" y="160" width="201" height="70" as="geometry" />
        </mxCell>
        <mxCell id="vVe2Fx5Xyn_7vQ3Fg-Rb-19" value="&lt;font color=&quot;#000000&quot;&gt;综合运营&lt;/font&gt;" style="text;html=1;strokeColor=none;fillColor=none;align=center;verticalAlign=middle;whiteSpace=wrap;rounded=0;fontSize=16;fontColor=#FFFFFF;fontStyle=1" vertex="1" parent="1">
          <mxGeometry x="120" y="180" width="70" height="30" as="geometry" />
        </mxCell>
        <mxCell id="vVe2Fx5Xyn_7vQ3Fg-Rb-20" value="&lt;font style=&quot;font-size: 16px&quot; color=&quot;#ffffff&quot;&gt;用户报装管理系统&lt;/font&gt;" style="rounded=0;whiteSpace=wrap;html=1;strokeColor=#FFFFFF;fillColor=#8DCACC;" vertex="1" parent="1">
          <mxGeometry x="210" y="260" width="430" height="70" as="geometry" />
        </mxCell>
        <mxCell id="vVe2Fx5Xyn_7vQ3Fg-Rb-23" value="&lt;font color=&quot;#ffffff&quot;&gt;&lt;span style=&quot;font-size: 16px&quot;&gt;客服热线系统&lt;/span&gt;&lt;/font&gt;" style="rounded=0;whiteSpace=wrap;html=1;strokeColor=#FFFFFF;fillColor=#8DCACC;" vertex="1" parent="1">
          <mxGeometry x="899" y="260" width="431" height="70" as="geometry" />
        </mxCell>
        <mxCell id="vVe2Fx5Xyn_7vQ3Fg-Rb-25" value="&lt;font color=&quot;#000000&quot;&gt;用户服务&lt;/font&gt;" style="text;html=1;strokeColor=none;fillColor=none;align=center;verticalAlign=middle;whiteSpace=wrap;rounded=0;fontSize=16;fontColor=#FFFFFF;fontStyle=1" vertex="1" parent="1">
          <mxGeometry x="120" y="280" width="70" height="30" as="geometry" />
        </mxCell>
        <mxCell id="vVe2Fx5Xyn_7vQ3Fg-Rb-26" value="&lt;font style=&quot;font-size: 16px&quot; color=&quot;#ffffff&quot;&gt;大外勤管理平台&lt;/font&gt;" style="rounded=0;whiteSpace=wrap;html=1;strokeColor=#FFFFFF;fillColor=#8DCACC;" vertex="1" parent="1">
          <mxGeometry x="210" y="360" width="201" height="70" as="geometry" />
        </mxCell>
        <mxCell id="vVe2Fx5Xyn_7vQ3Fg-Rb-27" value="&lt;font color=&quot;#ffffff&quot;&gt;&lt;span style=&quot;font-size: 16px&quot;&gt;工程管理系统&lt;/span&gt;&lt;/font&gt;" style="rounded=0;whiteSpace=wrap;html=1;strokeColor=#FFFFFF;fillColor=#8DCACC;" vertex="1" parent="1">
          <mxGeometry x="524" y="360" width="201" height="70" as="geometry" />
        </mxCell>
        <mxCell id="vVe2Fx5Xyn_7vQ3Fg-Rb-29" value="&lt;font color=&quot;#ffffff&quot;&gt;&lt;span style=&quot;font-size: 16px&quot;&gt;二次供水管理系统&lt;/span&gt;&lt;/font&gt;" style="rounded=0;whiteSpace=wrap;html=1;strokeColor=#FFFFFF;fillColor=#8DCACC;" vertex="1" parent="1">
          <mxGeometry x="829" y="360" width="201" height="70" as="geometry" />
        </mxCell>
        <mxCell id="vVe2Fx5Xyn_7vQ3Fg-Rb-30" value="&lt;font color=&quot;#ffffff&quot;&gt;&lt;span style=&quot;font-size: 16px&quot;&gt;只能消防栓及井盖管理系统&lt;/span&gt;&lt;/font&gt;" style="rounded=0;whiteSpace=wrap;html=1;strokeColor=#FFFFFF;fillColor=#8DCACC;" vertex="1" parent="1">
          <mxGeometry x="1126" y="360" width="201" height="70" as="geometry" />
        </mxCell>
        <mxCell id="vVe2Fx5Xyn_7vQ3Fg-Rb-31" value="&lt;font color=&quot;#000000&quot;&gt;运行管控&lt;/font&gt;" style="text;html=1;strokeColor=none;fillColor=none;align=center;verticalAlign=middle;whiteSpace=wrap;rounded=0;fontSize=16;fontColor=#FFFFFF;fontStyle=1" vertex="1" parent="1">
          <mxGeometry x="120" y="380" width="70" height="30" as="geometry" />
        </mxCell>
        <mxCell id="vVe2Fx5Xyn_7vQ3Fg-Rb-32" value="&lt;font style=&quot;font-size: 16px&quot; color=&quot;#ffffff&quot;&gt;管网数据一体化采集入库系统&lt;/font&gt;" style="rounded=0;whiteSpace=wrap;html=1;strokeColor=#FFFFFF;fillColor=#8DCACC;" vertex="1" parent="1">
          <mxGeometry x="210" y="460" width="201" height="70" as="geometry" />
        </mxCell>
        <mxCell id="vVe2Fx5Xyn_7vQ3Fg-Rb-33" value="&lt;font style=&quot;font-size: 16px&quot; color=&quot;#ffffff&quot;&gt;管网GIS数据编辑系统&lt;/font&gt;" style="rounded=0;whiteSpace=wrap;html=1;strokeColor=#FFFFFF;fillColor=#8DCACC;" vertex="1" parent="1">
          <mxGeometry x="524" y="460" width="201" height="70" as="geometry" />
        </mxCell>
        <mxCell id="vVe2Fx5Xyn_7vQ3Fg-Rb-35" value="&lt;font color=&quot;#ffffff&quot;&gt;&lt;span style=&quot;font-size: 16px&quot;&gt;管网GIS应用系统&lt;/span&gt;&lt;/font&gt;" style="rounded=0;whiteSpace=wrap;html=1;strokeColor=#FFFFFF;fillColor=#8DCACC;" vertex="1" parent="1">
          <mxGeometry x="829" y="460" width="201" height="70" as="geometry" />
        </mxCell>
        <mxCell id="vVe2Fx5Xyn_7vQ3Fg-Rb-36" value="&lt;font color=&quot;#ffffff&quot;&gt;&lt;span style=&quot;font-size: 16px&quot;&gt;管网GIS移动应用系统&lt;/span&gt;&lt;/font&gt;" style="rounded=0;whiteSpace=wrap;html=1;strokeColor=#FFFFFF;fillColor=#8DCACC;" vertex="1" parent="1">
          <mxGeometry x="1126" y="460" width="201" height="70" as="geometry" />
        </mxCell>
        <mxCell id="vVe2Fx5Xyn_7vQ3Fg-Rb-37" value="&lt;font color=&quot;#000000&quot;&gt;管网管理&lt;/font&gt;" style="text;html=1;strokeColor=none;fillColor=none;align=center;verticalAlign=middle;whiteSpace=wrap;rounded=0;fontSize=16;fontColor=#FFFFFF;fontStyle=1" vertex="1" parent="1">
          <mxGeometry x="120" y="480" width="70" height="30" as="geometry" />
        </mxCell>
        <mxCell id="vVe2Fx5Xyn_7vQ3Fg-Rb-38" value="" style="rounded=0;whiteSpace=wrap;html=1;fontSize=16;fontColor=#000000;strokeColor=#FFFFFF;fillColor=#8DCACC;" vertex="1" parent="1">
          <mxGeometry x="100" y="550" width="1280" height="135" as="geometry" />
        </mxCell>
        <mxCell id="vVe2Fx5Xyn_7vQ3Fg-Rb-43" value="时空信息云平台" style="rounded=0;whiteSpace=wrap;html=1;fontSize=16;fontColor=#000000;strokeColor=none;strokeWidth=2;fillColor=#FFFFFF;fontStyle=1" vertex="1" parent="1">
          <mxGeometry x="206" y="588.75" width="200" height="57.5" as="geometry" />
        </mxCell>
        <mxCell id="vVe2Fx5Xyn_7vQ3Fg-Rb-44" value="&lt;font color=&quot;#ffffff&quot;&gt;基础支撑平台&lt;/font&gt;" style="text;html=1;strokeColor=none;fillColor=none;align=center;verticalAlign=middle;whiteSpace=wrap;rounded=0;fontSize=16;fontColor=#000000;" vertex="1" parent="1">
          <mxGeometry x="125" y="602.5" width="60" height="30" as="geometry" />
        </mxCell>
        <mxCell id="vVe2Fx5Xyn_7vQ3Fg-Rb-45" value="时空信息云平台" style="rounded=0;whiteSpace=wrap;html=1;fontSize=16;fontColor=#000000;strokeColor=none;strokeWidth=2;fillColor=#FFFFFF;fontStyle=1" vertex="1" parent="1">
          <mxGeometry x="470" y="588.75" width="200" height="57.5" as="geometry" />
        </mxCell>
        <mxCell id="vVe2Fx5Xyn_7vQ3Fg-Rb-46" value="时空信息云平台" style="rounded=0;whiteSpace=wrap;html=1;fontSize=16;fontColor=#000000;strokeColor=none;strokeWidth=2;fillColor=#FFFFFF;fontStyle=1" vertex="1" parent="1">
          <mxGeometry x="732" y="588.75" width="200" height="57.5" as="geometry" />
        </mxCell>
        <mxCell id="vVe2Fx5Xyn_7vQ3Fg-Rb-47" value="时空信息云平台" style="rounded=0;whiteSpace=wrap;html=1;fontSize=16;fontColor=#000000;strokeColor=none;strokeWidth=2;fillColor=#FFFFFF;fontStyle=1" vertex="1" parent="1">
          <mxGeometry x="1003.75" y="588.75" width="200" height="57.5" as="geometry" />
        </mxCell>
        <mxCell id="vVe2Fx5Xyn_7vQ3Fg-Rb-48" value="..." style="rounded=0;whiteSpace=wrap;html=1;fontSize=16;fontColor=#000000;strokeColor=none;strokeWidth=2;fillColor=#FFFFFF;" vertex="1" parent="1">
          <mxGeometry x="1261" y="590" width="84" height="56.25" as="geometry" />
        </mxCell>
        <mxCell id="vVe2Fx5Xyn_7vQ3Fg-Rb-50" value="" style="rounded=1;whiteSpace=wrap;html=1;fillColor=#D6D6D6;fontColor=#333333;strokeColor=#F7F7F7;fillOpacity=100;strokeOpacity=100;" vertex="1" parent="1">
          <mxGeometry x="100" y="695" width="1280" height="245" as="geometry" />
        </mxCell>
        <mxCell id="vVe2Fx5Xyn_7vQ3Fg-Rb-52" value="&lt;font style=&quot;font-size: 20px&quot; color=&quot;#000000&quot;&gt;大数据中心&lt;/font&gt;" style="text;html=1;strokeColor=none;fillColor=none;align=center;verticalAlign=middle;whiteSpace=wrap;rounded=0;fontSize=25;fontColor=#FFFFFF;" vertex="1" parent="1">
          <mxGeometry x="120" y="777.5" width="30" height="80" as="geometry" />
        </mxCell>
        <mxCell id="JfuV8sE-HrC9HCaVTEUf-1" value="" style="rounded=0;whiteSpace=wrap;html=1;fontSize=16;fontColor=#000000;strokeColor=#67AB9F;fillColor=#D6D6D6;strokeWidth=2;labelBackgroundColor=default;" vertex="1" parent="1">
          <mxGeometry x="165" y="710" width="1195" height="70" as="geometry" />
        </mxCell>
        <mxCell id="vVe2Fx5Xyn_7vQ3Fg-Rb-51" value="数据模型创建" style="rounded=0;whiteSpace=wrap;html=1;fontSize=16;fontColor=#000000;strokeColor=none;strokeWidth=2;fillColor=#FFFFFF;fontStyle=0" vertex="1" parent="1">
          <mxGeometry x="224" y="724.06" width="150" height="41.88" as="geometry" />
        </mxCell>
        <mxCell id="JfuV8sE-HrC9HCaVTEUf-3" value="&lt;font color=&quot;#000000&quot;&gt;数据&lt;br&gt;管理&lt;/font&gt;" style="text;html=1;strokeColor=none;fillColor=none;align=center;verticalAlign=middle;whiteSpace=wrap;rounded=0;fontSize=16;fontColor=#FFFFFF;fontStyle=0" vertex="1" parent="1">
          <mxGeometry x="174" y="730.01" width="45" height="29.99" as="geometry" />
        </mxCell>
        <mxCell id="JfuV8sE-HrC9HCaVTEUf-4" value="数据抽取" style="rounded=0;whiteSpace=wrap;html=1;fontSize=16;fontColor=#000000;strokeColor=none;strokeWidth=2;fillColor=#FFFFFF;fontStyle=0" vertex="1" parent="1">
          <mxGeometry x="400.75" y="724.06" width="150" height="41.88" as="geometry" />
        </mxCell>
        <mxCell id="JfuV8sE-HrC9HCaVTEUf-5" value="数据转换" style="rounded=0;whiteSpace=wrap;html=1;fontSize=16;fontColor=#000000;strokeColor=none;strokeWidth=2;fillColor=#FFFFFF;fontStyle=0" vertex="1" parent="1">
          <mxGeometry x="575" y="724.0699999999999" width="150" height="41.88" as="geometry" />
        </mxCell>
        <mxCell id="JfuV8sE-HrC9HCaVTEUf-6" value="数据装载" style="rounded=0;whiteSpace=wrap;html=1;fontSize=16;fontColor=#000000;strokeColor=none;strokeWidth=2;fillColor=#FFFFFF;fontStyle=0" vertex="1" parent="1">
          <mxGeometry x="745" y="724.06" width="150" height="41.88" as="geometry" />
        </mxCell>
        <mxCell id="JfuV8sE-HrC9HCaVTEUf-7" value="数据备份" style="rounded=0;whiteSpace=wrap;html=1;fontSize=16;fontColor=#000000;strokeColor=none;strokeWidth=2;fillColor=#FFFFFF;fontStyle=0" vertex="1" parent="1">
          <mxGeometry x="922.5" y="724.0699999999999" width="150" height="41.88" as="geometry" />
        </mxCell>
        <mxCell id="JfuV8sE-HrC9HCaVTEUf-8" value="数据恢复" style="rounded=0;whiteSpace=wrap;html=1;fontSize=16;fontColor=#000000;strokeColor=none;strokeWidth=2;fillColor=#FFFFFF;fontStyle=0" vertex="1" parent="1">
          <mxGeometry x="1100" y="724.06" width="150" height="41.88" as="geometry" />
        </mxCell>
        <mxCell id="JfuV8sE-HrC9HCaVTEUf-9" value="..." style="rounded=0;whiteSpace=wrap;html=1;fontSize=16;fontColor=#000000;strokeColor=none;strokeWidth=2;fillColor=#FFFFFF;fontStyle=0" vertex="1" parent="1">
          <mxGeometry x="1271" y="724.06" width="64" height="41.88" as="geometry" />
        </mxCell>
        <mxCell id="JfuV8sE-HrC9HCaVTEUf-10" value="" style="rounded=0;whiteSpace=wrap;html=1;fontSize=16;fontColor=#000000;strokeColor=#67AB9F;fillColor=#D6D6D6;strokeWidth=2;labelBackgroundColor=default;imageAspect=1;" vertex="1" parent="1">
          <mxGeometry x="165" y="790" width="1195" height="130" as="geometry" />
        </mxCell>
        <mxCell id="JfuV8sE-HrC9HCaVTEUf-11" value="&lt;font color=&quot;#000000&quot;&gt;数据&lt;br&gt;管理&lt;/font&gt;" style="text;html=1;strokeColor=none;fillColor=none;align=center;verticalAlign=middle;whiteSpace=wrap;rounded=0;fontSize=16;fontColor=#FFFFFF;fontStyle=0" vertex="1" parent="1">
          <mxGeometry x="172.5" y="840.01" width="45" height="29.99" as="geometry" />
        </mxCell>
        <mxCell id="JfuV8sE-HrC9HCaVTEUf-12" value="" style="rounded=1;whiteSpace=wrap;html=1;labelBackgroundColor=default;fontSize=20;fontColor=#000000;strokeColor=none;strokeWidth=2;fillColor=#8DCACC;" vertex="1" parent="1">
          <mxGeometry x="230" y="797.5" width="350" height="112.5" as="geometry" />
        </mxCell>
        <mxCell id="JfuV8sE-HrC9HCaVTEUf-15" value="" style="group" vertex="1" connectable="0" parent="1">
          <mxGeometry x="249.25" y="829" width="70.75" height="75" as="geometry" />
        </mxCell>
        <mxCell id="JfuV8sE-HrC9HCaVTEUf-13" value="" style="shape=cylinder3;whiteSpace=wrap;html=1;boundedLbl=1;backgroundOutline=1;size=15;rounded=1;labelBackgroundColor=default;fontSize=20;fontColor=#000000;strokeColor=#67AB9F;strokeWidth=2;fillColor=#8DCACC;" vertex="1" parent="JfuV8sE-HrC9HCaVTEUf-15">
          <mxGeometry width="70.75" height="75" as="geometry" />
        </mxCell>
        <mxCell id="JfuV8sE-HrC9HCaVTEUf-14" value="基础地形&lt;br&gt;数据库" style="text;html=1;strokeColor=none;fillColor=none;align=center;verticalAlign=middle;whiteSpace=wrap;rounded=0;labelBackgroundColor=#8DCACC;fontSize=14;fontColor=#FFFFFF;" vertex="1" parent="JfuV8sE-HrC9HCaVTEUf-15">
          <mxGeometry x="5.75" y="35" width="60" height="30" as="geometry" />
        </mxCell>
        <mxCell id="JfuV8sE-HrC9HCaVTEUf-17" value="" style="group" vertex="1" connectable="0" parent="1">
          <mxGeometry x="330" y="829" width="70.75" height="81" as="geometry" />
        </mxCell>
        <mxCell id="JfuV8sE-HrC9HCaVTEUf-18" value="" style="shape=cylinder3;whiteSpace=wrap;html=1;boundedLbl=1;backgroundOutline=1;size=15;rounded=1;labelBackgroundColor=default;fontSize=20;fontColor=#000000;strokeColor=#67AB9F;strokeWidth=2;fillColor=#8DCACC;" vertex="1" parent="JfuV8sE-HrC9HCaVTEUf-17">
          <mxGeometry width="70.75" height="75" as="geometry" />
        </mxCell>
        <mxCell id="JfuV8sE-HrC9HCaVTEUf-19" value="供水管网&lt;br&gt;数据库" style="text;html=1;strokeColor=none;fillColor=none;align=center;verticalAlign=middle;whiteSpace=wrap;rounded=0;labelBackgroundColor=#8DCACC;fontSize=14;fontColor=#FFFFFF;" vertex="1" parent="JfuV8sE-HrC9HCaVTEUf-17">
          <mxGeometry x="5.75" y="35" width="60" height="30" as="geometry" />
        </mxCell>
        <mxCell id="JfuV8sE-HrC9HCaVTEUf-27" value="" style="group" vertex="1" connectable="0" parent="1">
          <mxGeometry x="411" y="828" width="70.75" height="75" as="geometry" />
        </mxCell>
        <mxCell id="JfuV8sE-HrC9HCaVTEUf-28" value="" style="shape=cylinder3;whiteSpace=wrap;html=1;boundedLbl=1;backgroundOutline=1;size=15;rounded=1;labelBackgroundColor=default;fontSize=20;fontColor=#000000;strokeColor=#67AB9F;strokeWidth=2;fillColor=#8DCACC;" vertex="1" parent="JfuV8sE-HrC9HCaVTEUf-27">
          <mxGeometry width="70.75" height="75" as="geometry" />
        </mxCell>
        <mxCell id="JfuV8sE-HrC9HCaVTEUf-29" value="地名地址&lt;br&gt;数据库" style="text;html=1;strokeColor=none;fillColor=none;align=center;verticalAlign=middle;whiteSpace=wrap;rounded=0;labelBackgroundColor=#8DCACC;fontSize=14;fontColor=#FFFFFF;" vertex="1" parent="JfuV8sE-HrC9HCaVTEUf-27">
          <mxGeometry x="5.75" y="35" width="60" height="30" as="geometry" />
        </mxCell>
        <mxCell id="JfuV8sE-HrC9HCaVTEUf-30" value="" style="group" vertex="1" connectable="0" parent="1">
          <mxGeometry x="491.75" y="828" width="70.75" height="75" as="geometry" />
        </mxCell>
        <mxCell id="JfuV8sE-HrC9HCaVTEUf-31" value="" style="shape=cylinder3;whiteSpace=wrap;html=1;boundedLbl=1;backgroundOutline=1;size=15;rounded=1;labelBackgroundColor=default;fontSize=20;fontColor=#000000;strokeColor=#67AB9F;strokeWidth=2;fillColor=#8DCACC;" vertex="1" parent="JfuV8sE-HrC9HCaVTEUf-30">
          <mxGeometry width="70.75" height="75" as="geometry" />
        </mxCell>
        <mxCell id="JfuV8sE-HrC9HCaVTEUf-32" value="专题点位数据库" style="text;html=1;strokeColor=none;fillColor=none;align=center;verticalAlign=middle;whiteSpace=wrap;rounded=0;labelBackgroundColor=#8DCACC;fontSize=14;fontColor=#FFFFFF;" vertex="1" parent="JfuV8sE-HrC9HCaVTEUf-30">
          <mxGeometry x="5.75" y="35" width="60" height="30" as="geometry" />
        </mxCell>
        <mxCell id="JfuV8sE-HrC9HCaVTEUf-33" value="&lt;font color=&quot;#000000&quot;&gt;空间信息数据库&lt;/font&gt;" style="text;html=1;strokeColor=none;fillColor=none;align=center;verticalAlign=middle;whiteSpace=wrap;rounded=0;fontSize=16;fontColor=#FFFFFF;fontStyle=0" vertex="1" parent="1">
          <mxGeometry x="320" y="800.02" width="160" height="29.99" as="geometry" />
        </mxCell>
        <mxCell id="JfuV8sE-HrC9HCaVTEUf-34" value="" style="rounded=1;whiteSpace=wrap;html=1;labelBackgroundColor=default;fontSize=20;fontColor=#000000;strokeColor=none;strokeWidth=2;fillColor=#8DCACC;" vertex="1" parent="1">
          <mxGeometry x="590" y="797.5" width="460" height="112.5" as="geometry" />
        </mxCell>
        <mxCell id="JfuV8sE-HrC9HCaVTEUf-35" value="" style="group" vertex="1" connectable="0" parent="1">
          <mxGeometry x="609.25" y="829" width="70.75" height="75" as="geometry" />
        </mxCell>
        <mxCell id="JfuV8sE-HrC9HCaVTEUf-36" value="" style="shape=cylinder3;whiteSpace=wrap;html=1;boundedLbl=1;backgroundOutline=1;size=15;rounded=1;labelBackgroundColor=default;fontSize=20;fontColor=#000000;strokeColor=#67AB9F;strokeWidth=2;fillColor=#8DCACC;" vertex="1" parent="JfuV8sE-HrC9HCaVTEUf-35">
          <mxGeometry width="70.75" height="75" as="geometry" />
        </mxCell>
        <mxCell id="JfuV8sE-HrC9HCaVTEUf-37" value="生产&lt;br&gt;数据库" style="text;html=1;strokeColor=none;fillColor=none;align=center;verticalAlign=middle;whiteSpace=wrap;rounded=0;labelBackgroundColor=#8DCACC;fontSize=14;fontColor=#FFFFFF;" vertex="1" parent="JfuV8sE-HrC9HCaVTEUf-35">
          <mxGeometry x="5.75" y="35" width="60" height="30" as="geometry" />
        </mxCell>
        <mxCell id="JfuV8sE-HrC9HCaVTEUf-38" value="" style="group" vertex="1" connectable="0" parent="1">
          <mxGeometry x="690" y="829" width="70.75" height="75" as="geometry" />
        </mxCell>
        <mxCell id="JfuV8sE-HrC9HCaVTEUf-39" value="" style="shape=cylinder3;whiteSpace=wrap;html=1;boundedLbl=1;backgroundOutline=1;size=15;rounded=1;labelBackgroundColor=default;fontSize=20;fontColor=#000000;strokeColor=#67AB9F;strokeWidth=2;fillColor=#8DCACC;" vertex="1" parent="JfuV8sE-HrC9HCaVTEUf-38">
          <mxGeometry width="70.75" height="75" as="geometry" />
        </mxCell>
        <mxCell id="JfuV8sE-HrC9HCaVTEUf-40" value="用户&lt;br&gt;数据库" style="text;html=1;strokeColor=none;fillColor=none;align=center;verticalAlign=middle;whiteSpace=wrap;rounded=0;labelBackgroundColor=#8DCACC;fontSize=14;fontColor=#FFFFFF;" vertex="1" parent="JfuV8sE-HrC9HCaVTEUf-38">
          <mxGeometry x="5.75" y="35" width="60" height="30" as="geometry" />
        </mxCell>
        <mxCell id="JfuV8sE-HrC9HCaVTEUf-41" value="" style="group" vertex="1" connectable="0" parent="1">
          <mxGeometry x="771" y="828" width="70.75" height="75" as="geometry" />
        </mxCell>
        <mxCell id="JfuV8sE-HrC9HCaVTEUf-42" value="" style="shape=cylinder3;whiteSpace=wrap;html=1;boundedLbl=1;backgroundOutline=1;size=15;rounded=1;labelBackgroundColor=default;fontSize=20;fontColor=#000000;strokeColor=#67AB9F;strokeWidth=2;fillColor=#8DCACC;" vertex="1" parent="JfuV8sE-HrC9HCaVTEUf-41">
          <mxGeometry width="70.75" height="75" as="geometry" />
        </mxCell>
        <mxCell id="JfuV8sE-HrC9HCaVTEUf-43" value="检测&lt;br&gt;数据库" style="text;html=1;strokeColor=none;fillColor=none;align=center;verticalAlign=middle;whiteSpace=wrap;rounded=0;labelBackgroundColor=#8DCACC;fontSize=14;fontColor=#FFFFFF;" vertex="1" parent="JfuV8sE-HrC9HCaVTEUf-41">
          <mxGeometry x="5.75" y="35" width="60" height="30" as="geometry" />
        </mxCell>
        <mxCell id="JfuV8sE-HrC9HCaVTEUf-44" value="" style="group" vertex="1" connectable="0" parent="1">
          <mxGeometry x="851.75" y="828" width="70.75" height="75" as="geometry" />
        </mxCell>
        <mxCell id="JfuV8sE-HrC9HCaVTEUf-45" value="" style="shape=cylinder3;whiteSpace=wrap;html=1;boundedLbl=1;backgroundOutline=1;size=15;rounded=1;labelBackgroundColor=default;fontSize=20;fontColor=#000000;strokeColor=#67AB9F;strokeWidth=2;fillColor=#8DCACC;" vertex="1" parent="JfuV8sE-HrC9HCaVTEUf-44">
          <mxGeometry width="70.75" height="75" as="geometry" />
        </mxCell>
        <mxCell id="JfuV8sE-HrC9HCaVTEUf-46" value="运营&lt;br&gt;数据库" style="text;html=1;strokeColor=none;fillColor=none;align=center;verticalAlign=middle;whiteSpace=wrap;rounded=0;labelBackgroundColor=#8DCACC;fontSize=14;fontColor=#FFFFFF;" vertex="1" parent="JfuV8sE-HrC9HCaVTEUf-44">
          <mxGeometry x="5.75" y="35" width="60" height="30" as="geometry" />
        </mxCell>
        <mxCell id="JfuV8sE-HrC9HCaVTEUf-47" value="&lt;font color=&quot;#000000&quot;&gt;供水业务数据库&lt;/font&gt;" style="text;html=1;strokeColor=none;fillColor=none;align=center;verticalAlign=middle;whiteSpace=wrap;rounded=0;fontSize=16;fontColor=#FFFFFF;fontStyle=0" vertex="1" parent="1">
          <mxGeometry x="752" y="800.02" width="160" height="29.99" as="geometry" />
        </mxCell>
        <mxCell id="JfuV8sE-HrC9HCaVTEUf-48" value="" style="group" vertex="1" connectable="0" parent="1">
          <mxGeometry x="933" y="828" width="70.75" height="75" as="geometry" />
        </mxCell>
        <mxCell id="JfuV8sE-HrC9HCaVTEUf-49" value="" style="shape=cylinder3;whiteSpace=wrap;html=1;boundedLbl=1;backgroundOutline=1;size=15;rounded=1;labelBackgroundColor=default;fontSize=20;fontColor=#000000;strokeColor=#67AB9F;strokeWidth=2;fillColor=#8DCACC;" vertex="1" parent="JfuV8sE-HrC9HCaVTEUf-48">
          <mxGeometry width="70.75" height="75" as="geometry" />
        </mxCell>
        <mxCell id="JfuV8sE-HrC9HCaVTEUf-50" value="工程&lt;br&gt;数据库" style="text;html=1;strokeColor=none;fillColor=none;align=center;verticalAlign=middle;whiteSpace=wrap;rounded=0;labelBackgroundColor=#8DCACC;fontSize=14;fontColor=#FFFFFF;" vertex="1" parent="JfuV8sE-HrC9HCaVTEUf-48">
          <mxGeometry x="5.75" y="35" width="60" height="30" as="geometry" />
        </mxCell>
        <mxCell id="JfuV8sE-HrC9HCaVTEUf-51" value="&lt;font style=&quot;font-size: 15px&quot;&gt;...&lt;/font&gt;" style="text;html=1;strokeColor=none;fillColor=none;align=center;verticalAlign=middle;whiteSpace=wrap;rounded=0;labelBackgroundColor=#8DCACC;fontSize=14;fontColor=#FFFFFF;" vertex="1" parent="1">
          <mxGeometry x="1010" y="850.5" width="30" height="30" as="geometry" />
        </mxCell>
        <mxCell id="JfuV8sE-HrC9HCaVTEUf-52" value="&lt;font color=&quot;#000000&quot;&gt;数据交互&lt;/font&gt;" style="text;html=1;strokeColor=none;fillColor=none;align=center;verticalAlign=middle;whiteSpace=wrap;rounded=0;labelBackgroundColor=none;fontSize=15;fontColor=#FFFFFF;" vertex="1" parent="1">
          <mxGeometry x="1070" y="815.51" width="30" height="79" as="geometry" />
        </mxCell>
        <mxCell id="JfuV8sE-HrC9HCaVTEUf-54" value="" style="html=1;shadow=0;dashed=0;align=center;verticalAlign=middle;shape=mxgraph.arrows2.jumpInArrow;dy=4.63;dx=18.93;arrowHead=15.68;rounded=1;labelBackgroundColor=none;fontSize=15;fontColor=#000000;strokeColor=none;strokeWidth=2;fillColor=#67AB9F;rotation=-30;" vertex="1" parent="1">
          <mxGeometry x="1043.17" y="838.18" width="36.83" height="31.82" as="geometry" />
        </mxCell>
        <mxCell id="JfuV8sE-HrC9HCaVTEUf-56" value="" style="html=1;shadow=0;dashed=0;align=center;verticalAlign=middle;shape=mxgraph.arrows2.jumpInArrow;dy=4.63;dx=18.93;arrowHead=15.68;rounded=1;labelBackgroundColor=none;fontSize=15;fontColor=#000000;strokeColor=none;strokeWidth=2;fillColor=#67AB9F;rotation=-210;" vertex="1" parent="1">
          <mxGeometry x="1090" y="827.9999999999999" width="36.83" height="31.82" as="geometry" />
        </mxCell>
        <mxCell id="JfuV8sE-HrC9HCaVTEUf-57" value="" style="rounded=1;whiteSpace=wrap;html=1;labelBackgroundColor=default;fontSize=20;fontColor=#000000;strokeColor=none;strokeWidth=2;fillColor=#8DCACC;" vertex="1" parent="1">
          <mxGeometry x="1122" y="797.5" width="228" height="112.5" as="geometry" />
        </mxCell>
        <mxCell id="JfuV8sE-HrC9HCaVTEUf-58" value="" style="group" vertex="1" connectable="0" parent="1">
          <mxGeometry x="1141.25" y="829" width="70.75" height="75" as="geometry" />
        </mxCell>
        <mxCell id="JfuV8sE-HrC9HCaVTEUf-59" value="" style="shape=cylinder3;whiteSpace=wrap;html=1;boundedLbl=1;backgroundOutline=1;size=15;rounded=1;labelBackgroundColor=default;fontSize=20;fontColor=#000000;strokeColor=#67AB9F;strokeWidth=2;fillColor=#8DCACC;" vertex="1" parent="JfuV8sE-HrC9HCaVTEUf-58">
          <mxGeometry width="70.75" height="75" as="geometry" />
        </mxCell>
        <mxCell id="JfuV8sE-HrC9HCaVTEUf-60" value="互联网地图数据库" style="text;html=1;strokeColor=none;fillColor=none;align=center;verticalAlign=middle;whiteSpace=wrap;rounded=0;labelBackgroundColor=#8DCACC;fontSize=14;fontColor=#FFFFFF;" vertex="1" parent="JfuV8sE-HrC9HCaVTEUf-58">
          <mxGeometry x="5.75" y="35" width="60" height="30" as="geometry" />
        </mxCell>
        <mxCell id="JfuV8sE-HrC9HCaVTEUf-61" value="" style="group" vertex="1" connectable="0" parent="1">
          <mxGeometry x="1222" y="829" width="70.75" height="75" as="geometry" />
        </mxCell>
        <mxCell id="JfuV8sE-HrC9HCaVTEUf-62" value="" style="shape=cylinder3;whiteSpace=wrap;html=1;boundedLbl=1;backgroundOutline=1;size=15;rounded=1;labelBackgroundColor=default;fontSize=20;fontColor=#000000;strokeColor=#67AB9F;strokeWidth=2;fillColor=#8DCACC;" vertex="1" parent="JfuV8sE-HrC9HCaVTEUf-61">
          <mxGeometry width="70.75" height="75" as="geometry" />
        </mxCell>
        <mxCell id="JfuV8sE-HrC9HCaVTEUf-63" value="其他业务&lt;br&gt;数据库" style="text;html=1;strokeColor=none;fillColor=none;align=center;verticalAlign=middle;whiteSpace=wrap;rounded=0;labelBackgroundColor=#8DCACC;fontSize=14;fontColor=#FFFFFF;" vertex="1" parent="JfuV8sE-HrC9HCaVTEUf-61">
          <mxGeometry x="5.75" y="35" width="60" height="30" as="geometry" />
        </mxCell>
        <mxCell id="JfuV8sE-HrC9HCaVTEUf-70" value="&lt;font color=&quot;#000000&quot;&gt;第三方数据库&lt;/font&gt;" style="text;html=1;strokeColor=none;fillColor=none;align=center;verticalAlign=middle;whiteSpace=wrap;rounded=0;fontSize=16;fontColor=#FFFFFF;fontStyle=0" vertex="1" parent="1">
          <mxGeometry x="1156" y="799.01" width="160" height="29.99" as="geometry" />
        </mxCell>
        <mxCell id="JfuV8sE-HrC9HCaVTEUf-71" value="&lt;font style=&quot;font-size: 15px&quot;&gt;...&lt;/font&gt;" style="text;html=1;strokeColor=none;fillColor=none;align=center;verticalAlign=middle;whiteSpace=wrap;rounded=0;labelBackgroundColor=#8DCACC;fontSize=14;fontColor=#FFFFFF;" vertex="1" parent="1">
          <mxGeometry x="1305" y="850.5" width="30" height="30" as="geometry" />
        </mxCell>
        <mxCell id="JfuV8sE-HrC9HCaVTEUf-72" value="" style="rounded=1;whiteSpace=wrap;html=1;labelBackgroundColor=none;fontSize=15;fontColor=#000000;strokeColor=#FFFFFF;strokeWidth=2;fillColor=#67AB9F;" vertex="1" parent="1">
          <mxGeometry x="282" y="960" width="940" height="141" as="geometry" />
        </mxCell>
        <mxCell id="JfuV8sE-HrC9HCaVTEUf-73" value="&lt;font style=&quot;font-size: 20px&quot; color=&quot;#000000&quot;&gt;基础设施&lt;/font&gt;" style="text;html=1;strokeColor=none;fillColor=none;align=center;verticalAlign=middle;whiteSpace=wrap;rounded=0;fontSize=25;fontColor=#FFFFFF;" vertex="1" parent="1">
          <mxGeometry x="135" y="995" width="95" height="80" as="geometry" />
        </mxCell>
        <mxCell id="JfuV8sE-HrC9HCaVTEUf-74" value="物联感知网络" style="rounded=1;whiteSpace=wrap;html=1;labelBackgroundColor=none;fontSize=15;fontColor=#000000;strokeColor=none;strokeWidth=2;fillColor=#D6D6D6;" vertex="1" parent="1">
          <mxGeometry x="110" y="1120" width="1280" height="50" as="geometry" />
        </mxCell>
        <mxCell id="JfuV8sE-HrC9HCaVTEUf-76" value="互联网" style="text;html=1;strokeColor=none;fillColor=none;align=center;verticalAlign=middle;whiteSpace=wrap;rounded=0;fontSize=14;fontColor=#FFFFFF;" vertex="1" parent="1">
          <mxGeometry x="340.75" y="1054" width="60" height="30" as="geometry" />
        </mxCell>
        <mxCell id="JfuV8sE-HrC9HCaVTEUf-77" value="局域网" style="text;html=1;strokeColor=none;fillColor=none;align=center;verticalAlign=middle;whiteSpace=wrap;rounded=0;fontSize=14;fontColor=#FFFFFF;" vertex="1" parent="1">
          <mxGeometry x="530" y="1054" width="60" height="30" as="geometry" />
        </mxCell>
        <mxCell id="JfuV8sE-HrC9HCaVTEUf-78" value="应用/数据服务器" style="text;html=1;strokeColor=none;fillColor=none;align=center;verticalAlign=middle;whiteSpace=wrap;rounded=0;fontSize=14;fontColor=#FFFFFF;" vertex="1" parent="1">
          <mxGeometry x="703.5" y="1054" width="118" height="30" as="geometry" />
        </mxCell>
        <mxCell id="JfuV8sE-HrC9HCaVTEUf-79" value="网络安全设备" style="text;html=1;strokeColor=none;fillColor=none;align=center;verticalAlign=middle;whiteSpace=wrap;rounded=0;fontSize=14;fontColor=#FFFFFF;" vertex="1" parent="1">
          <mxGeometry x="895" y="1054" width="95" height="30" as="geometry" />
        </mxCell>
        <mxCell id="JfuV8sE-HrC9HCaVTEUf-80" value="网络通讯设备" style="text;html=1;strokeColor=none;fillColor=none;align=center;verticalAlign=middle;whiteSpace=wrap;rounded=0;fontSize=14;fontColor=#FFFFFF;" vertex="1" parent="1">
          <mxGeometry x="1072.5" y="1054" width="87.5" height="30" as="geometry" />
        </mxCell>
        <mxCell id="JfuV8sE-HrC9HCaVTEUf-81" value="&lt;font style=&quot;font-size: 12px&quot; color=&quot;#67ab9f&quot;&gt;● ● ●&lt;/font&gt;" style="text;html=1;strokeColor=none;fillColor=none;align=center;verticalAlign=middle;whiteSpace=wrap;rounded=0;labelBackgroundColor=none;fontSize=12;fontColor=#FFFFFF;" vertex="1" parent="1">
          <mxGeometry x="1275" y="1020" width="45" height="30" as="geometry" />
        </mxCell>
        <mxCell id="JfuV8sE-HrC9HCaVTEUf-82" value="&lt;font color=&quot;#ffffff&quot; size=&quot;1&quot;&gt;&lt;span style=&quot;font-size: 25px&quot;&gt;信息安全体系及管理制度&lt;/span&gt;&lt;/font&gt;" style="rounded=1;whiteSpace=wrap;html=1;strokeColor=#FFFFFF;fillColor=#8DCACC;" vertex="1" parent="1">
          <mxGeometry x="1400" y="30" width="50" height="1140" as="geometry" />
        </mxCell>
        <mxCell id="JfuV8sE-HrC9HCaVTEUf-83" value="" style="verticalLabelPosition=bottom;verticalAlign=top;html=1;shadow=0;dashed=0;strokeWidth=1;shape=mxgraph.android.tab2;strokeColor=#8DCACC;direction=north;rounded=1;labelBackgroundColor=none;fontSize=12;fontColor=#67AB9F;fillColor=#8DCACC;" vertex="1" parent="1">
          <mxGeometry x="475" y="54" width="66.86" height="46" as="geometry" />
        </mxCell>
        <mxCell id="JfuV8sE-HrC9HCaVTEUf-84" value="" style="verticalLabelPosition=bottom;verticalAlign=top;html=1;shadow=0;dashed=0;strokeWidth=1;shape=mxgraph.android.phone2;strokeColor=#8DCACC;rounded=1;labelBackgroundColor=none;fontSize=12;fontColor=#67AB9F;fillColor=#8DCACC;" vertex="1" parent="1">
          <mxGeometry x="732" y="39.5" width="36" height="61" as="geometry" />
        </mxCell>
        <mxCell id="JfuV8sE-HrC9HCaVTEUf-89" value="" style="sketch=0;pointerEvents=1;shadow=0;dashed=0;html=1;strokeColor=none;fillColor=#8DCACC;labelPosition=center;verticalLabelPosition=bottom;verticalAlign=top;outlineConnect=0;align=center;shape=mxgraph.office.users.csv_file;rounded=1;labelBackgroundColor=none;fontSize=12;fontColor=#67AB9F;" vertex="1" parent="1">
          <mxGeometry x="965" y="54" width="59" height="43" as="geometry" />
        </mxCell>
        <mxCell id="JfuV8sE-HrC9HCaVTEUf-91" value="" style="sketch=0;pointerEvents=1;shadow=0;dashed=0;html=1;strokeColor=none;fillColor=#FFFFFF;labelPosition=center;verticalLabelPosition=bottom;verticalAlign=top;outlineConnect=0;align=center;shape=mxgraph.office.devices.router;rounded=1;labelBackgroundColor=none;fontSize=12;fontColor=#67AB9F;" vertex="1" parent="1">
          <mxGeometry x="1088.25" y="989.5" width="55" height="56" as="geometry" />
        </mxCell>
        <mxCell id="JfuV8sE-HrC9HCaVTEUf-93" value="" style="html=1;verticalLabelPosition=bottom;align=center;labelBackgroundColor=#ffffff;verticalAlign=top;strokeWidth=2;strokeColor=#FFFFFF;shadow=0;dashed=0;shape=mxgraph.ios7.icons.globe;rounded=1;fontSize=12;fontColor=#67AB9F;fillColor=none;" vertex="1" parent="1">
          <mxGeometry x="347.75" y="995" width="44.25" height="45" as="geometry" />
        </mxCell>
        <mxCell id="JfuV8sE-HrC9HCaVTEUf-94" value="" style="html=1;verticalLabelPosition=bottom;align=center;labelBackgroundColor=#ffffff;verticalAlign=top;strokeWidth=2;strokeColor=#FFFFFF;shadow=0;dashed=0;shape=mxgraph.ios7.icons.globe;rounded=1;fontSize=12;fontColor=#67AB9F;fillColor=none;" vertex="1" parent="1">
          <mxGeometry x="920" y="995" width="44.25" height="45" as="geometry" />
        </mxCell>
        <mxCell id="JfuV8sE-HrC9HCaVTEUf-95" value="" style="outlineConnect=0;dashed=0;verticalLabelPosition=bottom;verticalAlign=top;align=center;html=1;shape=mxgraph.aws3.ssl_padlock;fillColor=#67AB9F;gradientColor=none;rounded=1;labelBackgroundColor=none;fontSize=12;fontColor=#67AB9F;strokeColor=default;strokeWidth=2;shadow=0;" vertex="1" parent="1">
          <mxGeometry x="950" y="1010" width="30" height="40" as="geometry" />
        </mxCell>
        <mxCell id="JfuV8sE-HrC9HCaVTEUf-117" value="" style="sketch=0;pointerEvents=1;shadow=0;dashed=0;html=1;strokeColor=none;fillColor=#FFFFFF;labelPosition=center;verticalLabelPosition=bottom;verticalAlign=top;outlineConnect=0;align=center;shape=mxgraph.office.servers.server_farm;rounded=1;labelBackgroundColor=none;fontSize=12;fontColor=#67AB9F;" vertex="1" parent="1">
          <mxGeometry x="733" y="997.5" width="48" height="43.5" as="geometry" />
        </mxCell>
        <mxCell id="JfuV8sE-HrC9HCaVTEUf-118" value="" style="sketch=0;pointerEvents=1;shadow=0;dashed=0;html=1;strokeColor=none;fillColor=#FFFFFF;labelPosition=center;verticalLabelPosition=bottom;verticalAlign=top;outlineConnect=0;align=center;shape=mxgraph.office.servers.topology_builder;rounded=1;labelBackgroundColor=none;fontSize=12;fontColor=#67AB9F;" vertex="1" parent="1">
          <mxGeometry x="534" y="994" width="45" height="49" as="geometry" />
        </mxCell>
        <mxCell id="JfuV8sE-HrC9HCaVTEUf-119" value="" style="shape=image;imageAspect=0;aspect=fixed;verticalLabelPosition=bottom;verticalAlign=top;rounded=1;shadow=0;labelBackgroundColor=none;fontSize=12;fontColor=#67AB9F;strokeColor=#FFFFFF;strokeWidth=2;fillColor=#FFFFFF;image=data:image/png,iVBORw0KGgoAAAANSUhEUgAAAdYAAAEsCAYAAAB+E5IlAAAAAXNSR0IArs4c6QAAIABJREFUeF7tnQmYHFXV/t9TPZMAYRFFkSWuIJuAma6qniTssgU1CCgu/BVFBT/2dPUE3MOnIEm6eyICgij6gRsgKpthEVkCyXRV9UBIWGSTfVEWA4EsM13n/9QkkQDJTHfPvbV0n3r0CZB733PO797ut2u7lyBH7ARm3HLLxhttuMkkA7wlGbQlgC2Jwj95yyDAe4l4S2Dov8shBIRAmxEgoqXM/DxAzwP8PDOeZ/DzmQw9hxo9jww/nDfNRW2GJdHlUqKza+HkSq47KWA60CDjAIAntXCpUpoQEAL6CTwJor8y126EYdxeMM0X9IeUCOsjIMYa0dzoveuuD/BAsG/Awb5EtA+A8RGFljBCQAi0GwHCjQS6DQHm5XPZee1Wftz1irFqHoFiXzVrGMGxDDpWcyiRFwJCQAi8nQChyqCfF6zszwVPNATEWDVxFkPVBFZkhYAQaI6AGGxz3JroJcbaBLThuoihKgYqckJACKglIAarluc61MRYFSEuVfp3J6odL5d8FQEVGSEgBPQSEIPVxleMVQHakucdx0xnEvAuBXIiIQSEgBCIksDvgOB0x7afjDJoK8cSYx3F6M7s79+6YzA4E8BXRiEjXYWAEBAC8RIgPEDg0/OWdVW8ibRGdDHWJsex6FYPJ3Boqjs2KSHdhIAQEAKJIsDA/xZs8weJSiqFyYixNjhoF/p+56s1PpOIehrsKs2FgBAQAoknwIzrDApOy9v2vYlPNqEJirE2MDClSuUjoMwvAOzZQDdpKgSEgBBIG4FnOeCTC93WH9OWeBLyFWOtcxTm9C3asmYsvxYgs84u0kwICAEhkGYCg2A6zMllr01zEXHkLsZaB/Xy/PkbcsfYawD+eB3NpYkQEAJCoFUIvMbEhxUs66ZWKSiKOsRY66BcdqtXMvjwOppKEyEgBIRASxFg4EXAOLxgd93eUoVpLEaMdQS4Rde7mEBf1TgGIi0EhIAQSDgBejow+Ige06wkPNFEpCfGOswwlFyvF6BTEzFSkoQQEAJCIF4CjxrIHDHNnnB3vGkkP7oY63rGaHbFm2EQyftcyZ/DkqEQEAJREWDcz53GlEJX1+NRhUxjHDHWdYzarAXe5IyB20CUSeOgSs5CQAgIAY0EfuHY5jc06qdeWox1HUNYcr25AB2c+tGVAoSAEBACGggQ6HN5O3u5BumWkBRjfcswlip+HoRSS4yuFCEEhIAQ0EGAsGjDsWP2Pn633V7WIZ92TTHWtUawPN/fNcjgNiJsnvaBlfyFgBAQAloJEMqOZTpaY6RUXIx1rYEruv5lBByZ0rGUtIWAEBACkRIg0JS8nb0+0qApCCbGunqQihX/60S4KAVjJikKASEgBBJBgAh3bmtm9z6SqJaIhBKShBgrgNkLF77HWD7ggvD+hIyLpCEEhIAQSAWBgPmMnpw1IxXJRpSkGCuAku+fjAA/iYi5hBECQkAItA4BwiLHMndrnYJGX4kYa2isrr8AQPfocWpT+DcBsjeiNrwiLASSS4DB7ybQjgwk9r16Iv503rKuSi7FaDNre2MtVaufRI2viRb7+qMx+G8APQjgQRDflyFaPM00n01KfpKHEBAC0RP47OWXZyZ+4CM7Eg3sFDDtBMZOIOwL4L3RZ/P2iMR0aT6X/XIScklCDmKsrv9bAF+MfzD4ZgafX7DtP8Wfi2QgBIRA0gmUXHc8wziewMcDtGnM+b7OHcbOstThqlFoa2Mt9vfvTDVeBGYjvklJ8w3g/Gl2NjR4OYSAEBACDREoVe7+CNHg8QwcD6Czoc4qGzMcJ2eWVUqmVau9jdX1f0jAd+MbPDrWsbPyik98AyCRhUDLEOh13Y8FoO8CdEQcRYWv3uQtc484YictZtsa66/++c8NXnrhxUVgbBfLoDAf7eSsS2KJLUGFgBBoSQIX+n7n0hr+AsIhsRRoYD/HNG+JJXaCgratsZa8/iPAwR/jGAti/E8+Z14QR2yJKQSEQGsTONv3N+tk/Bk89HBTpAcDpYJtFiINmsBgbWusZdf/MQOnRz4mch8icuQSUAi0G4Fe398qCBA+CBnpa4TM+HshZ3683Xi/td62NdaS598IxgGRTgDm7zo568xIY0owISAE2pJAeX51O3TylcyIbPEGZrxc22zj95+2446vtiX01UW3pbGW58/fkDvGPBrtO2B8pWNbn2nnySa1CwEhEC2BYsX/NBH+HGVUNrBnwTTviDJm0mK1p7FWqnsy8e1RDgYx7ZXPZedFGVNiCQEhIARKbvVWgPeOjATRiY6VPS+yeAkM1JbGWnL9k4Eo1wamXzt29qsJHH9JSQgIgRYnUHLdrwDGryIs8yLHNo+NMF7iQrWlsRYr/kVE+HpUozFIvONplvWPqOJJHCEgBITA2gRKrn8PgF0jocLsOznLiiRWQoO0pbFGu+i+nK0mdO5LWkKgbQhEetbKXOMMfbRgmg+0DeC3FJpqY/1pf//WKwYHtzGItg6YtyHObE2ErTn8Z8KY9Q0qA+GvqXFRDDoBt0YRR2IIASEgBIYjwMAHsOr/2o96vvcC8KsEegrMT4P4aYM6nsIgP52hgadP7u5+RXuSGgOkyljL1ep2AfMUI6ApDJ6ikYtICwEhIASEQHwEHmTm6wKm619f9urtM/bdd3l8qTQeOfHG2ut5+weg/QHsD0a28RKlhxAQAkJACKSXAC8D0bUEut0wcPup2Wx4vzjRR2KNdXaf93nDoFOiXjkk0aMlyQkBISAE2pwAEf4Y1PCTQndy35VNnLHOXuDtY3TQKWB8us3nj5QvBISAEBAC6yFAROdiAD/JT8o+nDRIiTHWou/vaDBOYcY3kwZJ8hECQkAICIFEEniBgZ9s+NqGc07Yd5elSckwEcY6u+LNMGjosu87kgJG8hACQkAICIHUEFgM0EzHzv4mCRnHbqylincBiI5LAgzJQQgIASEgBFJN4MeObX477gpiM9bZCxe+x1g58JvId5iJm7jEFwJCQAgIAX0EmK9yclasz+jEYqylSmV3wKiCKKOPrigLASEgBIRAmxJ4cINxG2ZP2CWe+66RG2ux4h9NhF+36WBL2UJACAgBIRARAaOG7LSJZn9E4f4bJlJjLVb8k4hwTtRFSjwhIASEgBBoTwJjOoxtTurqeibK6iMz1rLrHsww5kZZnMQSAkJACAiB9iZAwOuvWNlNZhAFUZGIxFh7Pe9DAdNDAIyoCpM4QkAICAEhIARCAsy4rpAzPxkVjUiMteT6iwB8NKqiJI4QEAJCQAgIgTcRYD7TyVnfjYKKdmMtu/5lDBwZRTESQwgIASEgBITAegkQnehY2fN0E9JqrKtXVPqB7iJEXwgIASEgBIRAPQQINDVvZ6+pp22zbbQZ6xzff1+tBg+E9zSbnPQTAkJACAgBIaCSAIHm5u3sISo136qlzVhLFe9sEJ2mM3nRFgJCQAgIASHQMAHGkU7OvKLhfnV20GKspcrdHwENegA2rTMPaSYEhIAQEAJCIBoChFscy9xPVzAtxlp0/TkEhLvVyCEEhIAQEAJCIHEEmPjLBcu6VEdiyo11aB1gyrgAxuhIWDSFgBAQAkJACIyWAIEW5O3spNHqrKu/BmOVbeB0DJRoCgEhIASEgGoCdKxjZy9SrqpSsPeWu94RjKuFKyxtoVJXtISAEBACQkAIqCZAoGvydnaqel2FimW3eiSDL1MoKVJCQAgIASEgBHQRWEaDG26bn7TLSyoDKL0UXKpUfwniY1QmKFpCQAgIASEgBHQRYND/K9jZ36rUV2asM265ZYNNx23yIgMbqUxQtISAEBACQkAIaCNAuMSxzKNV6isz1pLXPxUcXKUyuca1+HkiWlgLeEHjfaWHEBACQkAIREXAAH0ExFmEf8Z5ED3jWNltVKagzFiLrvd7An1eZXJ1axFmZgz63anZ7D1195GGQkAICAEhEDuB4p3976fO4LMAZseVTFBDd89Es6IqvjJjLbk+q0qqfh1+KYOOg0+1J4SrPMkhBISAEBACKSVQ9P0dUcNlRNgt6hIC5jN6ctYMVXGVGGt5/r3v5I5lL6pKqk6dJx3bfF+dbaWZEBACQkAIpIBA2fWLDDgRp/oLxza/oSqmGmOtVrfjGofvr0Z2dBrY7mTTfCSygBJICAgBISAEIiFQdv1bGNgnkmAAVO94o8RYZy/wc0YGfVFBYODUgm3+JKp4EkcICAEhIASiIzDb8z5qMM0HsEkUUYnonryV3V1VLCXGWvS8KcT0V1VJDa/DDzq2tUM0sSSKEBACQkAIxEGg7FUvYeYvRRObX3Js612qYqkxVrd6FIF/oyqpYXUYv3dy5hcjiSVBhIAQEAJCIBYCJdcvRPmkMA2u3Cg/adIyFcWqMVbfP4kCnKMioZE0GCgUbLM0Ujv5eyEgBISAEEgvgV7Pmxww3RFVBZSh7fPZ7MMq4ikx1tkVb4ZB9AMVCY2kEdR4356J1q0jtZO/FwJCQAgIgXQTiPI1TpXeIsaa7nkn2QsBISAEWpaAGKucsbbs5JbChIAQEAJxEBBjFWONY95JTCEgBIRAyxIQYxVjbdnJLYUJASEgBOIgIMYqxhrHvJOYQkAICIGWJSDGKsbaspNbChMCQkAIxEFAjFWMNY55JzGFgBAQAi1LQIxVjLVlJ7cUJgSEgBCIg4AYqxhrHPNOYgoBISAEWpaAGKsYa8tObilMCAgBIRAHATFWMdY45p3EFAJCQAi0LAExVjHWlp3cUpgQEAJCIA4CYqxirHHMO4kpBISAEGhZAmKsYqwtO7mlMCEgBIRAHATEWMVY45h3ElMICAEh0LIExFjFWFt2ckthQkAICIE4CIixirHGMe8kphAQAkKgZQmIsYqxtuzklsKEgBAQAnEQEGMVY41j3klMISAEhEDLEhBjFWNt2ckthQkBISAE4iAgxirGGse8k5hCQAgIgZYlIMYqxtqyk1sKEwJCQAjEQUCMVYw1jnknMYWAEBACLUtAjFWMtWUntxQmBISAEIiDgBirGGsc805iCgEhIARaloAYqxhry05uKUwICAEhEAcBMVYx1jjmncQUAkJACLQsATFWMdaWndxSmBAQAkIgDgJirGKsccw7iSkEhIAQaFkCYqxirIma3L2+v1WN+aMU0K5M/FECbQdgHAHjwj+ZaOhPMIf/e40IS4loKXPwGiH8kxYDwWJQx6LOYMXik7u7X0lUgZKMEIiQQO+CBR8IMpkPA5kPATweFH6OaBwzb0yMcav+HQDjNabw80RLAX4t/HcwP80GHjUM45/bPvLIP4888shahKmnOpQYqxhrbBN4yESBHDG6iZELwLsS6F2KE3oCjLuIMC8wUNkE6D/ONF9XHEPkhEDsBGa57scyAe2DDO0Nxs4APgwgozCxJwh4NCCaCwM3F7LZqkLtlpISYxVjjWxCz/D9jTZlY2oQBB8HYBNht8iCvxFoJQh3MqMfAd9Q6LZuiiEHCSkERk2gXK1uFwTYjxh7grAnmN8/atFGBBhPg+gmoDa/o7Pz1lMmTHioke6t3FaMVYxV+/wu9nkHUMaYCg4OBWi89oCNBbgrYL7aMHCVY1l3NdZVWguBaAkMmSnzFCOgKQyeEm304aMR0d8A3MgZutHp6lqYpNyizkWMVYxVy5wruYvGB7z8awbRVAATtARRLUq4CeArNya6+DjTHFAtL3pCoBkCF/p+51LmY4iNQ5Nmpuuvh+YHHNzUkaELp5nms83UneY+YqxirErn7xzP26EG4xgwHwNgC6Xi0YktZuaLBzN08emmuSS6sBJJCLxB4Gzf36yjxscQUfhZ+mgq2RA9EwTBRe1msGKsYqxKPq8lz5sAGMcQ8zEMbKRENH6RR8F8sbGCLp62V/v96o4ff3tm0Hu7v1Uwlo/BKkP9UEtQaDODFWMVYx3V53Zmf//WHQM1B0T5UQkluTPR4wycVbCyP09ympJb+gmUK96JTJiewGcRFMHlJ4kxK5+zzlUkmEgZMVYx1qYnZtH3T6IaHBCifRqx6YxH15FAfwoCnFXoltcMRkdSer+VwKoH/KgHjAPagg7hJq7x7FZ9Kl+MVYy14c9xyfOmMsMh0F4Nd05/h9eJ6My8lT0r/aVIBXETCB/yA62cDuYT484llvhE54LHzHLsXZ+MJb6moGKsYqwNTa2S6/8vgO811KkVGxNuYcL3C6Z5RyuWJzXpJ1CqVj+JgHvBCFcXa+fjUZAx3bG6rmwVCGKsYqx1zeViX9/OZHTMBPDJujq0R6MBBr5fsM2z26NcqVIVgbJX7WHmWar0WkKH6EzHyn63FWoRYxVjHXEeF93qUQQOTXWbERu3YQMiXEeE708zzf42LF9KboDA0Cs0AfcS6KsNdGufpoS/BuDTeixrcZqLFmMVYx12/s6ueDOMiBil+YMEYAmYT3Zy1iUpr0PS10Rgdl91N8PgCwF0awrRGrKEZ4lQyJvm79JakBhrRKYR1HjfnonWrWmaKGKqTYyWYTiO2VVuoqd0aWECpb5qNwwOjeKDLVym0tKI6DtpfUiwLY31nL6+TVdS50RGMDGqs7G0GWvZ9X/IQEvc71D6aa9HjGiGY2XPqKeptGl9Ar3V6n5BjW9u/Uq1VHiRY5vHalHWKBqlsQJ0JcAPcsD3d3QaC0/NZu9ptjRqpmOv7389YBzIzBMJtG0zGs32SZOxltzqpQD/v2ZrlX5AwHxGT86aISzam0DZ97/IAX7b3hRGVz2DrynYVrjmeGqOaI31LVgIVQb9vJkFbRoy1lLF/yyITgQ4tvcu02KsZde/mYH9UjODE5woAYW8bZYSnKKkppGA3EpRCJdwo2OZBylU1CoVq7GuqawJg63LWGcvXPgeY+Xg+WA+QivFOsTTYKwl1/8TgMPqKEea1EmAM3RwIZu9oc7m0qxFCIipahhIwkzHMk/XoKxcMhHG+kZVNwQ1PrueZ3xGNNZyf7/JNb4KzFsrp9aEYNKNteT554BxUhOlSZcRCBDTXvlcdp6Aag8CJdcPF1AJF1KRQz2B4x3b/Jl6WbWKCTPWNcUVHdvsGa7SYY01ib8WmfizBcv6o9rhU6NWqvh5EBJ3yZJgPM8UvExMSwFeETAYxBkCbQDQMhCvAHNAoAxAGzB4UwDvBPBeNWTUqDDzcrCxh6wxrIZnklXKFf+bTEjiF//zRHgJjFeZsYIJNQIyIIwd4hn+N6BGjAyF/42wCfPQZ2nLxPEmPtqxkv1aW0KNFSBc4Vjmkesb0/UaaxJNdXURywjB4Xnbvj5JE7XouocTjEQsJUbAiwx+AqANAew4Ck4vAKgSETGzudpsRyGnoCvhfhqgqflJ2YcVqIlEAgmUK9XDmDi8nRL7QcArDPrHqkTYGlVCRPOJeTkT7QzmRPxoZQRHFGw7EazXxTaxxhomO4y5rtNYS171BDAneDsi+pdBweHTLOvOUU10RZ17F1R3CjowF8yx7U7DwCME/JuBzQnYQVFpa8u8BlAfwAEYH4lzJx4CXZO3s6l6ulHDeLSkZMl1xzOMmzTN4bqYMfCMgXCLQ94AwIS6OjXYiAgVBl4BD63CtnOD3dU1J3rcGMSUaROz96sTVaM0e4G3j5GhW9SoaVJZj7m+zVhn9fkHZgyk4SGRR8G1w51cbqEmZHXLlir+9SDE8qQdM99BRJsD2KXuhEffMADgA2wAFJ7JRn4w8+xCzpoeeWAJqJVAyfV/A+AorUHWK84+QOHctqONz/cy42Ui2iPauKujMW5wcubBscQeJmjZ9W9hYJ+k5fXWfALm6T05a/ba//1Nxjqnb9GWg7TiRiLslvRiVuVH1zt2dkqcuZZcrxegU2PIITxbD++F7hpD7P+GJNACnb/sh6uNQMfk7eyv4qxfYqsjUPKqp4K5V51i3Up3EWg5gyfW3UNPw0UIz2KByXrkh1PlOY5tTYs+7rojJvhW5LoSXgFk9nPsCfPX/OWbjLXsVS9h5i8lBW59edBXHTv76/raqm1V9KrHEg+tWRrdwehb/aCElktUzRZChDuZIzf6JQjoYKc729ds3tIvGQSKff4eZOAmAOHl16iORUR4hTkOIxu2xLvCh6BA0a6FzETHNbMYgurBSsUl4LcUTaC/5+3sx99mrMWK/3UiXKQakn49WkiDKybmJ01apj/WGxHmeN4ONaZwD9EtIorrxnnptYEa5zHzVkQUzd6YhJscyzywgfykaQIJlDz/RjAOiCY1fhCg5wHsGU28ZqNEe2magOepM9M9bcKEx5rNWEW/tFwCfmuta/8w+e8Za8nz54ERzzX+0Y/Gtx3b/PHoZepXKFWqvwTxMfX3GFXL8J53LPdwm8k6/IAy8K+oLlMT80n5nJXgh+2aodg+fcoV70Qm+mk0FfNtRPRBZrwvmnijj8LMFSLKjV5pZAUi6s1b2fzILfW0WLW6Hy7Xo65ZlVB1LHPomZMhYy32eZ8hg67QHFan/KOObX5YZ4C1tUte/1RwcFUk8ZivAtGhkcRSHIQY93Ak9+v5SWCDyY6965OKSxA5zQRK7qLxwPI7ARqvORQI9GcGp3NFNMZCEHbXzwg1dBjd+a4uX3esdemXPP9yMD4bR2wVMdectQ4Za8n1rwHwSRXCsWkwjnRyZiQ/DkquH14C1v6AAQN/p5SvN8zAAzS6d2nrm1JE5zpWVla8qo9WYlqVvOpPwXyi/oTotwDH9LSxouoID4Oh/RYLEV2at7JfVpR13TLF/v6daTC4t+4OyWzY59jmRAq3fhswOp4DEC4mkOKDL3Ns6/O6CyhWvOlENFNznCeIaENmfrfmONHIEx4BQ/sVBQ74wEK3FT4AI0cKCBT7vAPIoBt1p0qg2xi8t+44Eem/CuYBEIWrOWk7CDQlb2cjXYSnWPHKRJSYJ5Obhzv2fVSsVA8i4kgBNp/wMD2JVjhWVusThb2+v1XA5OtdN5nvBSjKd1K1DMfbRXnZ6pWgdMb7s2Obh+sMINrqCJRc7yqAdC/0sQTAZuqyToYSM+7R+1okX+3YVqS3oBK9ylIDw05kfIFKFW8miFriRXsycFDeNLX9Ao7g3arwHbbw3dTWPBj3g7CTzuI4wJ6FbjO8VC9HgglEc7bKzwGUiKUDdQzF6ocEta1BHOUVoHANhZqxIrxymv6D6VxK+dPAbxoEnQsGRHO2inBt3qhe34lnAjOuAkHnL+GLHNs8Np7iJGq9BIqu93sC6bx188Ao18mut5Q42z0K4EO6EmDwHwq29QVd+mvrzqlWd6vVOPZV9FTUSsCtVHL9xREvh6ci93VqEPC9vG3+SEcA3WerDPwjzvVRdTBbvyZdBvDnNMVcniH+2KmWtXrhdE1RRLZpAr2eNzlY9Q64riP8TvuoLvEk6RLhOmZ8QldOBvEeUazJnqKldEdGTXiESl71ab33DEfOQ1ULJlxQsMz/UaW3RieCs9V+AF2q806yHoHmMljLcpTMfFYhZ30nyfW3c2463wHXf+8xiSNHVwOs514108VOLvs13VUX+7wvkUGX6I4Tkf4L4Rnr6+l/IngVLgZfU7At5RNM524/zOijiJcui2hyjRRmGYHuZQxtR6f6eHRjAzseZ5oDqoVFb3QEVq9YFl6m1XDQfQCHr6OM0SCeaEkm+hsx768jyQzxjrqvAJVcvwDgTQvZ66glIs0hY+WIgmkPE17bztvmvqoDlbzqVWAdvwiHvgji2zJKNagG9YhwP4db3DGMBruO3JyMzzhWVyL2xx052fZpoe11NaKVYA7vOY5m/+GUD4Se7xNmPq2Qs2bphKP7VpvO3NehLcY6EvDy3XdvwysHw0211b/Kw7gDlNplJEdCV+ff8+0A7VVn47qbMfOlhZwV+UvudSfYpg31La7CtwHUKu+qNjc79H2f3OnYptblbsVYmxvySHrpOGMtu9WvMvhi1QVEt9yf6swV6w2tJsPbaHjHdYmxHDtN28t8VnHGItckAV0PLRHw7OrLbls1mVrLdNP1vaL7ISYx1gRPQS3G6lV/z8waXgvg+QBNSjDOCFPTdLZB/E3HsqLd1i9CamkLVfKqM8Gs4Z15TfMnbYCH8tX0vUI0y7Gyp+lCIsaqi6wCXdXGerbvb9YZILxvo3T5MCL0M7fXU8DDDi/hcQI2Y8Y7FEyDNyQIf3UsU9urCEpzbQOxouuH60bvoLLU1WtRh8tldqrUTbOWju+X8HXAgm1qu38txprgGafaWEt93iEw6DoNJYcbc3dr0E2tZDh2DOyjuIDlY3nctifmdnpRsa7INUig1/e7ggDVBruN3JxwR4q3uxy5vuZaaPl+CWq8b89E69bmUhq+lxirDqqKNJUbq1f9EZgVvw9JHsCWopJbSSa8F5oB8B6VRRHoc3k7m879HVWCiFmrWPG/ToSL1KYxtBG4jte11KYZi5r675mA+YyenDVDRzlirDqoKtJUbaxlz+9jhtoNhvU9uaeIYqwy8wDsqTIDIlyQ17BoiMoc20GrVPEuANFxamuleQArnS9q84tTjeYDrPQZDtXfr2vTEWONc66MEFvlwPfe7m8VbIBnFJf7GoBlLb8ecPPQdKxA9YBjm1oX/m++3PbpqWnp1HBje+0bpKdylIheJuaxDGykMv9gbOfGPbvvHn6PKT3EWJXiVCum0liLbvUoAv9GZYYMvp00vLOpMsfYtYj+DcX70GYMvP9U03wi9traNIGi729BAf6ttHxCFYysUs3WE1P/Q7XGhzoTratVoxJjVU1UoZ5KYy27/hwGTlGYXrjk4t8IpGXZMZV5xqnFYI9ASu9Bs4HDCqb5lzjraufYZbd6MIPnqmUQ7iFNB6vVbDU19qD4swTCTMcyT1dNSoxVNVGFeiqNVdMyhq2/Ldzox/MuABNGL7OWAsNxcmZZqaaI1U1A01rb6udJ3RWlpCHRy2DeXGW2xPhjPmd+VqVmqCXGqpqoQj2Vxlp0/UWkcOspIlSUPwilkF3CpJYrXUKS6Vwnlz0pYTW2TTrlSrXMxNPUFcwrvw+kAAAgAElEQVQvANTa+xYrgkVM9zDxborkQpm7HNtUvhOXGKvCEVItpdJYS66/FMA4dTnSbQC391qm9cNU+h5euGdl3jI/WX94aamSQMn1rgJI3a5T8u5q/cOj/C0EfsWxrc3qT6C+lmKs9XGKpZUqY529cOF7jBUDzystgnA/GPJ0al1QVf8IofscO7tLXaGlkXICJddbDJBC/qrnh/KSkyOo4XuHDby7YJrhbS1lhxirMpTqhVQZ6xzfz9UChGdNKo/QqLdUKdi6WmrXO2Xm5YWctWHr8kp2Zer3fFY7P5JNb9TZKf/eCQx095hmZdSZrSUgxqqSpmItVcaq5ylGxcW2sBwDdxPwMZUlvvPd79rwqx/8YHjvVo4ICfx43rzNx4zd8CWVIXXMD5X5tboWgabk7ez1KusUY1VJU7GWKmMtef1HgIM/KkxP+a9GhbklUeqfAD6oMrGxPG4LWTNYJdH6tGZ63g4dTA/U17ruVsrnR92R09lQ7fcPGZ9xrK4rVaIQY1VJU7GWOmP1vgym/1OVHhHuZ7m/Wj9OxlIQNq6/w8gtZZGIkRnpaFGuVPdkCjezV3homB8Ks0uclPLvH+KjHcu6RGWhYqwqaSrWUmasrv8/AM5XlR4BLgO2Kr220CFaCmZl5srB4C6F7u772oJdgopUfvVH8bxIECptqWj4/jnesc2fqUxYjFUlTcVaCo21EL6zrCw9xjyQ2sXlleWWXKHHAHxAVXqMwC7YtqdKT3TqI1BS/CMVgNJ5UV8VKW+l/vunx7HNokoqYqwqaSrWUmWsqgeZgVtJ/V6jiuklS46Au1nhA0w695JMFrlkZaP6s6R6XiSLlp5sVH//6Ng+TvU80UOybtUXqOT6XHfzhDdUZawl15cz1vjHWumZiZyxxjOgcsYaD/c3RZUz1qgHQYx1XcRVfxlouMcR9USJPp7ie2lyjzX6IQwjyj3WeLivHVXD94/cYx1+WMVY12msnjwVHOvXgYanPuWp4HhGVJ4Kjof7m4xV9VsJ8lTwSIMqxrpuY5X3WEeaOZr/Xvl7ivIeq+YRW4+8vMcaD/e3RJX3WKMdBjHWdfGWlZeinYVvjaZjZR1ZeSmeMZWVl+LhrjOqrLw0Il0x1nUhkrWCR5w4mhuoXQtW1grWPFwjyBcr3jIi2kBdFmrnh7q8Eqmk9mwVQMZA96myVvBwgy3Gui46srtN3F8Qqncvkd1t4hzRklu9F+Cd1eWgen6oyyxxShp2twnGdm7Zs/vu/1JZq7xuo5KmYi1Vr9uEacl+rIoHpwE5Ai1g8MQGugzbVPZjVUWyOZ2y51/LjE8013sdvZTvMaoss+QJqWf1mmObylZEWwNMjDV5U+e/Gak01qLrLyLgo8rKZfSB0K1Mr5WFmF8H0UbKSmQ618llT1KmJ0INEShVqj8F8YkNdRquMdFzYH6vMr0WFmLw3QRStlMUA4sLtrmramRirKqJKtRTaawlr3oVmKcqTC+UehXAJoo1W0yOFgK8u9KiGI6TM8tKNUWsbgKlip8HoVR3hzoaMngxgdT98K0jZgqbvAZgnNK8ia52rOyhSjXD9WMr3gyD6AeqdWPSk3us6wNfdv05DJyidGAIt4Cxr1LNFhMjQoUZOZVlsYHDCqb5F5WaolU/gaLvf5oC/Ln+HvW05OsBOrielm3bhlEFIauyfgJ+krfNU1VqhlpirKqJKtRTecZadKtHEfg3CtMDQDcD/HG1mq2lRuCnGLStyqpkcQiVNBvXml1Z+EGDBh5tvOf6e6i+D68yt+RosQeQpTQfDYtDiLEqHSH1YiqNtfd2f6tgAzyjNMvw3lAQbAGiDqW6LSPG9wK0i+JyHnBscyfFmiLXIIFSxX8KhG0a7DZc82VgLAdhc4WarSQ1COA/ALZQWdRgMDj+tO7up1RqirGqpqlYT6WxhqmVPb9P9WVJYlSY1F7qVIwxRrlwQ2zaS2UCRLggb5nh/rpyxEig6FZ/T+DPq0xBzlqHo8k+QKZa3rg7b5sTVGqu0ZJLwTqoKtJUbawlr/ojMH9HUXprZOYBsjfr25gSBQT+BzOUnl0S6HN5O3u54jEUuQYJlLzqqWDubbDbsM0JmMfyWVofI/XfM0RzHCs7TeUYirHqoKlYU7mx9nmHwKDrFKcZyi2Gyld5NCQYvaT6s1UAy8fyuG1PzO30YvT1SMS1Cczp79+rNhjcpoHKXQC0nEVpyDUqSS3fL8w4rJDT8xCgnLFGNTWaiKPaWM/2/c06A34UoHc2kc5wXe4EMFmxZprlloHwNBjbKS2C8VcnZ6pbmEBpcu0ldt699268/LVl4eYKSu/5geCCYbcXzRGr1fH98oLRmdl+2oQJ4X1b5YcYq3Kk6gRVG2uYWcn1wyeDj1KX5SolHQvNq84xOj2+DaC9VccjMr6et7p+qVpX9JojUKpUfwniY5rrPVwvmg/wJPW66VPU9r3CdLGTy35NFxExVl1kFejqMFY9r92ExsoLCKRs2T4F+OKS+A8IS8B4v+IEnqfBlTvnJ016SbGuyDVJoOT1TwUHVzXZfbhu9wJQ/TS5hjT1S2r7XiHjUMfqulpXBWKsusgq0NVhrOX5976TO15/SMPlYDCjSopf4FaAMVIJItzKjH00BP2ZY5vHa9AVyVEQKLr+AwTsMAqJ9XSVhfl1fZ8w8I+Cbe6ofszeUBRj1Ul3lNo6jDVMSdflYB2rDI0SYdTdwx0yagC2Uh2YiQ8sWNZNqnVFb3QESl51Jpinj05lnb2fBLCh8nu4GhLVJant+4RolmNlT9OVd6grxqqT7ii1dRmrrsvBYblEuJO5PR9k0na2SnAdy1S6LOIop6Z0X02g1/MmB0x36ABC4AXctrdX+GaAtKzqZhDvMc2ywgeitB2taKyvtMzC8IQrHMs8UvXoz2A2NvH6+5UvDv/fRLWsOKQag2q9awF8UrXokB7RNMfKztGiLaKjJlDy/OvAOGTUQusSIPLArHYZPy2JqhNl8N8ItL86xbWUCH91LP1P1hd9/yQKcI6WGqIXfYHKrv84A++LPrb6iMzcW8hZefXKQ5eDTwbwEx3a4fuWAJYA2FKTftJkwwXZD9ORFAHP18Z27qZ6I2YdubarZsnrPwIc/FFb/Ro299aW6yiFw/ufRLQNmJXvkbrqR6rxGcfqunKUaY7YvVTxPwtCqyzkEu5uU71b35nYiDyVNiCifN7KKl3dZU2C4Xt4K15b3s/g7ZUm/YbYszruNWrKtWlZItzDjN2aFhihIxH15q2slh9XunJuR92y69/C0PLQ2hqcTwNK1yZO5jAx7gepXa1sTaG6bq2tC2S5Ut2TKVwkpiWO+8IzVt0TPDpSjCOdnHmFroBF1z+dgB/r0gfjYZDiRRK0JdukMPMrINq0yd4jdqMOw8p3dfkjNpQGsRLo9fq/FHBwibYkmJeBKHyYqXUPxi0gfdtQGmR8eZrVdWkUAMvV6nZc44eiiKU9BuMGKla8aUTUEptAB8S79lhWuJyXlmP2nQvfY3QO9Gv9Jcy4A4Q9tBQQsygz7iPCztrSILrSsbKf0aYvwkoJlFy/AmhcNYnxGAgfUJp0YsS0b0HpOnZ0DwCuXpnr1cTgHU0iRGdSyfMmgCk0i3QfjPudnKnvS3s1nWLFm05EMzXDCl8TOUBzjCjlwy2swvV6td5D5oAPLHTLKzZRDuxoYpXd6lcZfPFoNOro+yAwZK5j6mibiibEuIdJ3+2UEAIxfz2fsyJdtUz7D62IRtcg4xAKY5Uq/n26rtNHVEv4JKj2d63W1FJy/fB1Ad1r/YZroO4Mgp6HEiIbGDwGINy4XO8etETnOlb2pOjKkkgqCJTc6h8A/pwKrWE0VhKoyuC0r3T2AoAB3c9iEGhu3s7qeWp7mEEqVbwvg+j/NM8F3fLLBwy8d8hYy67/YwZO1x1Rp77BxqRpua4FOmP811j1Lc32pvSJ8BQzwoXL94yiLtUxGFhMkeziw08CG0x27F3DRQLkSBGB2X3V3Qxj6KGVzXSnzYy/EOHTuuNo0Y/wSeeA+IAey/qbljqGEb3Q9zdaWuPnQLRJ1LFVxSPQNXk7O3WVsfr+rhzgHlXiMehEej8grE/fguJvp6f1PTVtg8UuQJHsOkLMJ+Vz1rnaShFhrQTKXrWHmWdpDbJanMFzCTQliliqYmhbUWkdCTLhgoJl/o+q3BvVKbleL0CnNtovMe0z9Cknm712yFiHjML1fwvgi4lJsIFEonx6bU1aczxvh9qqFWTUboO1nroZuNUg2oWZ390AmsibMvgfBoyXIrvsRrjJscwDIy9UAiolUKz4NxNhP6Wi6xNj3MHE7yaQhjWLlVbwIINfjGyzDsK/yaBJ+Wz2YaVVNCCW5tdu1pythuX+11hnV/xPGIRwNZxUHUS4Lm+ZelbwGYFE0aseS8wXRgWMgWcMwoPM6AKg7ZWVpuohPEKgp5g5vPes937qGwkuQUAHO93ZvqZyTmCn2ZXKxIzR0R0wb0egbYl4W2aMD8ebgacM4EkGP8Wgp8CoZDKoTDPN8B3oVB/hRujBYPB3BjIRFTJIRHcyeFswPhxRzPrCMJ4G8cMAhctyblBfJwWtDBzvmObPFCiNSqLk+hcB+PqoROLovPps9U3GGv5LGtdrNMg4YJrVFfn9gDXjFsuli6HXCOhxgLsBjI1jDq0V80lgaDN4E8C4KHMh0DF5O/urKGOqjlXsq2aZgk8ZROFYhg/XNPyDiYBwkRc3INxaW7Hi2tP22COVry2Uveq3mflM1YxH0HsNYB+gDwFDP2DiPJYQ4S4Ot8BjRHxlii5y7OyxcRa/JvbshQvfQysGbo7m+Qw1FTPjgkLujUvo/z1jfcMo/D/pWm5OTQlvUvmFY5vf0KDbkGSp4l8PwkENdVLQmBkPEdGzAO+lQK5RieeI8AAYuzHwzkY7j7Y9M88u5Cwdu6SMNrUR+5cqd3+EafBTBvBJ5asPET1DHFzLGeOa8F7PiMkkrEHZq/6VmSO/B0rAS1i1Kli4Pdp7o8cSPsBFobF/MPLYjOrKDccc8K3ddns58tjrCVha4E1FhnTs3auhRJr/6muvHDRj332XrhF/m7HO8v0PdwSYy4CupfvUFKZpwf1mkutdUN0p6MBcMKverLuudAj8FMJLhEwbgbB7XZ2aakRPE/APRjAWZOwM5s2bkhllp7XvZYxSKtLu4dmpYQTHMiiqM4N5TPzjgmXNjbTQUQQr9/ebPBj8Pa6NQQj4Dxj/CEtggz6icY4vA8gDcW31pei41msPDKYDpuWyIfNEHeWKdyYTfTtRSb0lGSJaylw7yLHt+Wv/1duMNfzL2Qu8fYwMhYsURHWvrDF2CTLVNYkXXfdwgqF9seqRQBHwOoMeCr8WAOw6Uvs6/v5RIno4CILNiSj+XUMI99MATc1Piu8BizqYvalJDIb65hQZP61RcNZ0236u0dzjaF/yqqeCWcua3w3WEzBwj8FYocRkGS/DwN1gyoC5KwnvqBNQyNtmqUEukTUvuT5HFqyZQOtZRnedxrqWud7STCytfRJoqmvqLVX8PAiJmqSrVmmh18E8iNBqeWgFmnFgvAM0dB8nvHzxAsCvALQMhEEwGwRjTADeghJ05YKZl4ONPQrd2arWOaZQvOT63wJwlkLJ5qTCdajBP3Rylr71eZvLbJ29Ynl2YYT8w3vZDHodCAYw9GEKOhm0EYXv4K65J0r4NwNLCPw6YAwAAQCjk8AbMfAxhYhGLUXA2XnbDOdnYo9EG+swa9Ov11hD0uEvbTLCG/vJOYIa79sz0bo1ORm9OZOS558DhqwApGGAiGmvfC47T4O0csmi7+9IAZ0FsJbt8ZpPmM9zbOvE5vtH17Pk+r8BcFR0Edsq0jmObZ6S9IoTaqxLwPjGcBu+DGusIfRzHnpo7MB/XjkfzMckYRCSbqwho5KbqgfAkjCsI+bAGTq4kM3eMGLDBDQoed4RYOMnAG+TgHTWlULkC6o0y6FU8W8AQd5TbhbgOvvR7Y6d3VuppCaxpBlruNxjEOB7I101G9FY1/AKX8UhohMJeJcmhnXJpsFYw0LKrn8zI6IX3usil95GSb8PtDbZsu8fyAFS8QPAsc26P/9xzp6W2toyTpBhbMZSJ2emZsnAJBkrA98r2OaP6hnChj5Y4RPDmYBPBCi8lBTLg01pMdZVZ67VSwH+f/UMhLRZN4GA+YyenDUjDXx6K/0TAwre9HRgwvOe59hmHK9qNYyl7Pq/ZuDohjtKh7UJPOfY5lZpQpIAY32CgN/BwO/yprmoXnYNGesa0V7f72KmvcNl65h5YrhCTL0BR9suTca6+sz1hwx8d7R1t2P/NJlqepdi4zmObU1Lw/wquv4pBMxJQ64JzLHPsc3U7e4Tk7E+ASIPzDcPGPjd6aa5pNHxbMpY1w5yTn//u1cM1E4wiH7QaPBm2qfNWMMa07iiVTNjo7SPYTiO2VVWqqlJrOQuGg+seEKTvHZZDoIfFbrt72kPpCBA2ev/GnPwCwVSbSNBRH/IW9kvpLHgKI01vOXECO7u3HzzO07efvsVo+E1amON2jjSaKxRMxrNhEhA3yVgPjktr4WEvEqu/wiAcEm81B7MOKyQM/+ShgKKnvcFYgrNdaM05Btnjml4pWY4PlEaq0pvEWONcNaXvf7PcxCcDUIsKzRFWGpTocINFYjw/Wmm2d+UQAydSq73B4B0b9StvbLwHU3qzOw7bcKE/2gPpiDA0KV3g3vByCqQa0WJpxl0WsHOhruWpfYQY5VLwXVN3nK1uh3XgrMBOqKuDu3RaICB7xds8+w0lVuu+N9kQuy7gShjRjTHsbKpuN8a1lz0/S0ooF55QPBtM+BaDgZPK3R336dsbsQkJMYqxtrQ1Cu6/ukE/LihTq3YmHALE75fMM1wb9vUHBf6/kZLA1QAfDQ1SdeRqGHgk9NM87o6miamSUy74iSm/rck8kPHNr+f1OQazUuMVYy10TmDXs+bHDCmAzS14c7p7/A6EZ2Zt7LxL/fXBMuyV+1h5llNdE10Fwb/oWBbqXvQpeT1TwUH4W5H4X7A7XjcCTJmOVbX1a1UvBirGGvT87nkeccw03QCdmhaJEUdCfSnIMBZI61ektSS5ixatGVt2QoXQFw7kuhFQ9zlWNZdeoPoUS9WvOlE1ANgCz0REqf6wuotFFvuR15IWoxVjHVUn7ih+0VMPWBO5R6jdRVP9DgDZxWs7M/rap/QRi3/+hRz2clZTkLxj5jWHM/boRYY00HJWIZ1xISbbcB0ccYIZp1qWUPb3LXiIcYqxqpkXpc8bwJgHEPMx3DrvE7wKJgvNlbQxdP2Mp9VAiomkV7f3ypg8sG8dUwpRBH2+WCgc7eeybv/K4pgumLMrvifMAhfBIb+3zIHAZeTgUvSdi+8mQEQYxVjbWberLfP0K9uGMes3vwgrZe1FjPzxYMZuriZ1UuUAlUk1vJnq29wOsWxzXMUYYtVpuz7uyLAF3mVwab18v2rAF0S1PjSnolm+NBcWxxirGKsWib60Ko+tDI02EMBTNASRLUo4SaAr9yY6OLjTHNAtXxcem1ytjqEl0AL8nZ2UlysdcQ92/c36wwNlvEZotRskHFXwHx1R3iGalmP6uCSZE0xVjFW7fOz2OcdQBkjfPrxUIDGaw/YWIChLwDDwFVpffBlpHLb6Gx1FQqmTzm57LUjcUnj35f6qt1MweFk0GFgbJesGvhJkHEV14KrC93WTcnKLdpsxFjFWCObcTN8f6NN2ZgaBMHHAdhE2C2y4G8EWgnCnczoR8A3tPoXQDudra41l37r2GZL7850oe93Lg2Cwxl0EBHtGZvJMh4G6HYy6KZXKLh6hmm+HsNnOnEhxVjFWGOblOGXfg3IEaObGLmAsTsRNlec0BNg3EWEeYGByiZA/3Ft9OFvu7PVVZOnZmRo12nZ7P2K51Ji5Wa57scyAe2DDO0Nxj4A3qEr2aFNsw2eS8x3tOpVntGyE2MVYx3tHFLav+S64w3D2K1W49BkwzPa8QCNA2McCOOAVf9n5gEQXiPQawAtBcJ/5teYaTEQLAZ1LOoMViw+ubv7FaUJpkisTc9Wh0aIDON/82ZXJDtXJXFKzOzv37pzgD/MVPswYIQbLXx41WcJ42jNZ4hozecpLOE1Yn4t/JOBoT9BeIoC/mcA+idR8M+Axz7ak9v9n0msN2k5ibGKsSZtTko+igi06dnqED1mPDTmxX/tevIhh4xqGy1FQyEybUZAjFWMtc2mfHuUm5Cz1XlgXgCi7QEcFjV5ZnylkDP/L+q4Ek8IiLGKscqnoAUJxHy2+otB4uJpa62sU3K9cwE6IVrUfL1jW1OijSnRhIAsaTjDEGOVz0GLEYjzbDVgPqMnZ81YF9KS6y8GsEuUuNnAnmnbgShKPhJLDwE5YxVj1TOzRDU2AjGerf67M+jsOrl796fWVXzZ9b/PwBlRgmHg/IJtRnymHGWFEiuJBMRYxViTOC8lpyYJzOzr27Yj01mJY01gBs4u2Oa31pd674LqTkGGw7NWo8nymujGLw12ZHY9ravrmSY6Sxch0BQBMVYx1qYmjnRKJoFixZu1evuxqBN8pdNA18mm+chwgYte9ffE/PlIk2M4Ts4sRxpTgrU1ATFWMda2/gC0UvHhDkPM1EfAmKjrYubeQs7KjxS36LqHE4wrR2qn+O/7x1tZ+0iimmJdkRMC6yQgxirGKh+NFiFQcqu/AvgrMZSzgjuMrkJX1331xC65/t0Adq+nrcI2LbPrjUImIqWJgBirGKumqSWyURIo+/6BHOCGKGOuidXoA0Jlr/ptZj4z4lwfNDozuWkTJvwn4rgSrg0JiLGKsbbhtG+9kksV7zoQHRJHZbUastMnmv31xp7V17d9xugIH2KK9pI10XcdKxu1odeLRdq1EAExVjHWFprO7VlKr1s9KgD/JpbqGb90cubXG41dcquXAhz1DjTPAkHOse0nG81X2guBRgiIsYqxNjJfpG3CCMxgNjbx/D6ArDhSC7g2qSeXW9Bo7NICbyoydFWj/UbdnjDTsczTR60jAkJgGAJirGKs8gFJMYFixZtGRDG9SsK/cWzrS83iK3m+D0a22f5N9SNayrWBXKG7u64HrZqKIZ3anoAYqxhr238I0gpgzqJFW9aWregD8IE4aghqvG/PROvWZmMXvep0Yp7ZbP9m+zX6sFWzcaRf+xIQYxVjbd/Zn/LKS65/FoD1rnSktTzCFY5lHjmaGLMrlQ8alAkfYtpoNDrN9A1q6O6ZaFaa6St9hMBIBMRYxVhHmiPy9wkkUJ7v78qdWDC0AXwMBzMdXMhlR/16T8n1fw7gG1GXwMyXFnLWl6OOK/Hag4AYqxhre8z0Fquy5Pq/AhDHYhAA6GrHzh6qAukc38/VAoSXs2M4jP0du+vmGAJLyBYnIMYqxtriU7z1yov19ZrQVkFT8nb2elVky5XqJUzc9ENQTefB+IuTMyPfgL3pfKVjagiIsYqxpmaySqLALNd9bwZ0G0AfiYUH4xInZx6tMnbZ7d+bETT9ENSocmE+2slZl4xKQzoLgbcQEGMVY5UPRYoIFF3/PAKOjyVlopUG8cRpZv2rLNWbZ8nzLwfjs/W2V9aO8fCYTmPvk2RbOWVIRQgQYxVjlc9BSgjEtDPM2nSKjm326MBVrFQPImJll5cbypH5QidnfbOhPtJYCAxDQIxVjFU+ICkgcE7fQ5uuNJbcRsDH4kiXgKcGgsGJp3V3P6UrftH1ribQp3TpD6drEH92mmX9MY7YErP1CIixirG23qxuwYqKrl8kwImxtB7HNos645c971Bm+ovOGOvTJsI9K5Yv2+dbe+75chzxJWZrERBjFWNtrRndgtWU3erBDJ4bY2n9rz726MQZRx65UncOJde/EcABuuOsR/8cxzZPiSm2hG0hAmKsYqwtNJ1br5QLfb9zaUC3AjwptuqIj3asaJ6cLbnVzwH8h9hqZRzp5MwrYosvgVuCgBirGGtLTORWLaLk+v8L4Hvx1cfXO7Y1Jcr4pYp/Owh7RhlzrVgPGAb2m2aaz8YUX8K2AAExVjHWFpjGrVlCqc87BAZdF2d1qheDqKeWYsU/mgi/rqetpja/cGwz8mUWNdUisjEQEGMVY41h2knIkQgU5/s7UgdCU/3QSG21/b2GxSDqzbXoei7FtMdsmCMxvpLPmf9Xb77STgisTUCMVYxVPhEJIzDj8nvHbPyB5dcReP/YUtO4GEQ9NZU87xgw/bKetpraDIDpcCeXvVaTvsi2MAExVjHWFp7e6Syt7HoXMujYmLPXthhEvXWVXO8qgKbW215Du//UDJjTTfMRDdoi2cIE2tpYS33eqTCoN4rxZeIvFizr91HEkhjpJVCq+KeBcHasFRAeH6wN7qFzMYh66uv1vMkB0x31tNXY5mnHNrfVqC/SLUag1/e3CgI8E1VZNQQTptv23SrikQqRsu9/kQP8VoXWiBpE33Ws7JkjtpMGbUugVPE/C8LlcQMwDHxjmmn+Iu48wvglrzoTzNNjzmWxY5u7xpyDhE8JgV7vrskB1yL7QUiDK7fNT5r0tAo8Soy16HkHEFP4Qrr+g+hix8p+TX8giZBGAsW+apYM9mPPnXCFY5lHxp7H6gSKvr8FAtxBwA5x5kTArXnb3DfOHCR2Ogj0ev1fCjiIbMekjQ2MOc40B1TQUWKss1z3YxkYd6lIaCQN+WCORKh9//7H8+7ZfMzYlS/FTYCBJR0Z2uvUbPaeuHNZO34CHmQaSkc+w0maFcnNZXbFm2FE9OwOgP84trm5KhpKjLU8f/423DFG26Liby12cOXyTU/bY49XVUEQnfQTKM+/953csezFhFSifT3gZussVfy/gHBos/1V9RNzVUWydXVKbtUF2IqiQgYeKtimsr2ZlRjrquXioH390zWAienwfC775yiAS4zkE5i9wM8ZGfQlIVMi3Ji3zIOSkMu6cihX+k1QcFu8K/IAAAvjSURBVBsDG8Wdo5hr3COQ3Pgld9F4YMUT0WXI8x3bmqwqnhJjDZMpuX64m8U7VCU2nA4D5xds84QoYkmMZBNIyoNKaygxgr0Ltn17kqkVK963iSgRDwAy+G5jcGBSftKkZUlmJrlFS6DsVr/K4Isji0r4i2OZh6mKp8xYi67/IAHbq0pseB1+ngcyucLkrsejiSdRkkggcabK/J1CzjoriazemlPZ9W9hYJ9E5Ep4PKgNTu3p7k7UPelEsGnTJIqu99dwGdAIy7/IsU1l77wrM9aS690JUJQ7h8T+4n2Egy6h3kKg6FWnE/PM5IDhqx3biv3eZb08Znve/gbTTfW219+OX2UYXynY2T/pjyURkkygWPG+QES/izJHZj6rkLO+oyqmMmMtu/4ZDHxfVWJ16CzPZCiXtCcv68hbmoyCQHn+/A25Y8w5AL4+ChnVXZ8jdOyftz92r2phnXoJebf1TSVyEPyo0G3HuAuRTuKiXQ+Bklu9M+rtHZn4wIJlKfuhqcxYo3zl5o3B4csc2/p8PYMlbdJPoDTfm0AdVE7MJcw1SIm/5lhWdPeDFA3lD/r6Nt3EyNxGoI8pklQiQ4Traiv59J7J1mIlgiKSGgIl1y8AmB1xwksc21T6fJAyYw1BlDz/ITC2ixIKgX+et63joowpsaInUHL9b4HxbRA2jj76+iOmff7NrlT3M4jnAhiTJK4AngXoB46dvShheUk6mgjM6vMPzBi4QZP8MLJ0mWNnlZ6gqTXWijcTRJEvm8YGTi6Y5k+jHxCJqJtA0fOmENO3gNg27B6uxIVsYP+Cab6gm4NO/aLrHk8wztMZYxTadzLzeYWcrA8+CoaJ7zqnb9GWNWPFc3EkSgaOypum0nu6So21t1LdLyC+OQ44THxIwbLCX95ytACBcGlCwwiOTcDuNOujuTJgmtKTy/69BXCHr8v9BMDJCa7lBgKdl7ez1yQ4R0mtCQJF39+RAtzfRFcVXZZvMG7Dd5+wyy5LVYit0VBqrKFo0fWeJFA8u1gYOMUxzfDBFjlSSiAFhjpElhGcULDt81OK+W1pz2A2NvGrc8E4MOE19YHoMoP4smmm+WzCc5X0RiAQ5c5o60yFcZWTMz+teqCUG2upUr0AxPHd8yRcwjU6p9CdraqGJXp6CITLEQYdy6cQOHxv7Sg9UZSqnuPY5ilKFRMgVuzr25mMjvCqz/sSkM6wKRAQLl95WUB8rVypSvpovT2/cEu4wRofF+FawOuDdLxjmz9TTVC5sfZ6/Z8JOLhCdaKN6oUPlQSB8XMx2EbJRdN+Tl/floNG5/6rzDT8P70zmsijjEK48VUzO2UGUTBKpUR2L7ru4QTjykQmt76kGA8DmMsGzxWTTfbI/ddQDeMbYN461myJAgPB9tMs61HVeSg31lU7jAwsAngb1ck2qfdbBs0t2Nlo9ottMsl26Nbr+13M9HEOeH+APw6iTMrqfoKDwSmF7u77UpZ3Q+mWXd9hoNhQp8Q05ueJaCEz7gHD7eTOBSd37x7ZBiGJwZCwREquO4lhHE5EX4jdUFezYfA1BduaqgOVcmMNkxx6NQJI2NJu/BLYuIKJH6KAXyYyXq4FQbi+sRyjJGAYxsZkBBsHAW1MBm1MRBtzrbYlyNiKEWxNoK0Y2JqS90pHQ5UzgiMKtt0WKwOVXO9cgFplPe4XwHgAhPuH/mR+IGC83tDgS+O6CRhjjI2NgDYPKNg8qPE7DaLPANilboGIGjLTwYVcVsvrPVqM9Zy+vk1XGh1u3JsqRzQ+EqYNCHDAXy50W5e2Qan/LbFU8a8D4ZB2qllqbRsCv3NsU9vzHFqMNRyaYsU/iQjyhG7bzNNWLpSObdeFCkoV/z4Qdmrl0ZXa2pFAZrJjT5ivq3Jtxjpjxgxjk0M+UQHI1JW86AoB3QSYcXIh196LjxQr3jIi2kA3a9EXAlEQYPDPC5pX69NmrCGgklv9CsC/igKWxBACygkQnetY2ZOU66ZQsOT64T3JDVOYuqQsBNYmsDwIKNfTndW6RaFWYx0yV8//Oxj7ytgKgVQRINzkWGbSF0uIFGnJrT4P8HsiDSrBhIBCAgyUCrYZLvSv9YjAWPuPAAd/1FqFiAsBhQQIuDVvm/JjcB1MS67/CIAPKcQtUkIgKgIvBFyze3K5f+oOqN1YwwLKbvVKBh+uuxjRFwKjJUDguXnbkidhhwFZcqt3A7z7aFlLfyEQJYGA+YyenDUjipiRGGvJXTQeWBEulZa4d5migCwxUkNA6yP4qaFQR6Il178DwOQ6mkoTIRA7gai3d4zEWEOqxT7vACLMTeFqO7FPCkkgAgJE5zlW9sQIIrVMiJJXvQAc47rgLUNSCtFJgEDX5O2slhWW1pd3ZMY6dEm44p3IRLJvqs5ZJNqNE2A+08lZ3228o/QoV/wvMkGWC5WpkFQCSwwDO0W9E1KkxhqSL3nVn4JZzgySOg3bKS+il8HIO3b21+1UtupaZy/w9jEy9DcAaVv7WTUK0UsYAQ7IjGMjlsiNdZW5+jeCcUDCxkDSaSMCRLgT4Hzestw2KltbqTMXLNipo6Pz52DsoS2ICAuBRghk6FNONnttI11UtY3FWIfM1fWeAGi8qkJERwg0QOAXgyuX50/bY49XG+gjTUcgcP4992y+bPnARQAfIbCEQJwEmHl2IWdNjyuH2Ix1lbn6/wGwWVzFS9z2I8DM+ULO6m2/yqOruOz6xzMQ3rPeKrqoEkkIrCaQgMVdYjXWEEPZrV7N4E/JpBACOgkQaC4YP87nsvN0xhHtVQRm9fVt32F0fIeBo4WJEIiMQEKWIY3dWIfM1av2MPOsyOBLoHYi8BwbOKtgtvdC+nENeNGtHmUQvsPMskNOXIPQJnGJ+aR8zjo3CeUmwliHLgt73hFgkqUPkzArWiQHBv/KyBhn5bPZh1ukpFSWcU5//7sHBoPw0vDJqSxAkk46gRc44C8Wuq2bkpJoYow1BNJb6Z8YGMElYGyXFECSRwoJEFUR8EwnZ16RwuxbNuViXzVrGMGxDDq2ZYuUwqImcCcw9guOveuTUQceLl6ijHXIXBcs+EBgdF4IguwskqSZko5c7gXRz141u342gyhIR8rtl6UYbPuNuZaKmS52ctmvadEepWjijDWs5/J77x3zxKvLvgfCCUTYfJQ1SveWJ8CPEuj8cQZ+dpxphvuGypECAmKwKRikZKa4mBnnFXLmBclMD0iksa6BVa5Wt+MaTgD4BACdSYUoecVDgIFniOh8GtjgZ/lJu7wUTxYSdbQEVhksf4EZnwdhm9HqSf8WJcB4HIRzaXDL8/KTxi9LcpWJNtY14EqeNwEBnQBCIk/7kzzALZjbIIBrAgTXbMh89Ym53IstWGNbltR7113vqK2sfd4gfI6BfdoSghT9NgIEvBgA5/FA53k9k3f/VxoQpcJY1zqD3XP1Gezn0gBXclRHgIC/M9E1NeJrpptmuNm2HC1MoOT2fxwIPg8g/Kxv0sKlSmnrJ7CSmc8LBum86ZPT9ZlPlbGudQZ7CDEdyeD9ZFnE1v1cEtHfakFwZ0eGrp5mmv2tW6lUtj4Cxf7+92MgOMAwaBJzMBmgjwitFidA6Afz7eDMr51c18I0VptKY10b9Opfth8HaF+Au9M4CJLzagKM8H3TuQbRrYNjO+7o2T0dl31k/KIjEC72P6ZjzJ4B815DC/4T3h9ddImkicByEF3HzH/nAb69Z7K1WFOcyGRTb6xrk+r1/a2CIDgIZBwIxkEA3hkZSQnUCIHlAB4D6DEifiwg3NeZyVx/yoQJDzUiIm2FwOxK5YNEHRNA2I6YtydgO2ZsLw9BJX5uPEhE1xHor0s2Gnv7jF12WZn4jBtIsKWM9a11hyu+LF8RjM908LbEtG0AjCfwtoQ1/4xtAYxtgJc0XTeB1xhYQowlAJaAsGTo38N/xtA/v8gBP2bAeKxm1B6bbtvPCUghoJNAef78DWuGsT0ZnduFposg2IKATUEU3q/dFOBNGdg0/G9EtEn4z2D5LlA0Jq8ACBdseAqMpwLwUxkDTwaB8RQ66ckxK1c+dXJ3d9imZY//D9mZvQklFpboAAAAAElFTkSuQmCC;" vertex="1" parent="1">
          <mxGeometry x="1196.8400000000001" y="52" width="78.33" height="50" as="geometry" />
        </mxCell>
        <mxCell id="JfuV8sE-HrC9HCaVTEUf-121" value="" style="group" vertex="1" connectable="0" parent="1">
          <mxGeometry x="230" y="50" width="70" height="50" as="geometry" />
        </mxCell>
        <mxCell id="vVe2Fx5Xyn_7vQ3Fg-Rb-3" value="" style="fontColor=#0066CC;verticalAlign=top;verticalLabelPosition=bottom;labelPosition=center;align=center;html=1;outlineConnect=0;fillColor=#8DCACC;strokeColor=#8DCACC;gradientColor=none;gradientDirection=north;strokeWidth=2;shape=mxgraph.networks.pc;" vertex="1" parent="JfuV8sE-HrC9HCaVTEUf-121">
          <mxGeometry width="70" height="50" as="geometry" />
        </mxCell>
        <mxCell id="JfuV8sE-HrC9HCaVTEUf-120" value="" style="rounded=0;whiteSpace=wrap;html=1;shadow=0;labelBackgroundColor=none;fontSize=12;fontColor=#67AB9F;strokeColor=none;strokeWidth=2;fillColor=#D6D6D6;" vertex="1" parent="JfuV8sE-HrC9HCaVTEUf-121">
          <mxGeometry x="16" y="5.5" width="52" height="28" as="geometry" />
        </mxCell>
      </root>
    </mxGraphModel>
  </diagram>
  <diagram id="EbXgvaKDLVC_U3knA23N" name="第 2 页">
    <mxGraphModel dx="1422" dy="762" grid="1" gridSize="10" guides="1" tooltips="1" connect="1" arrows="1" fold="1" page="1" pageScale="1" pageWidth="827" pageHeight="1169" math="0" shadow="0">
      <root>
        <mxCell id="v_h2Y7OwhkYSsYE_teQM-0" />
        <mxCell id="v_h2Y7OwhkYSsYE_teQM-1" parent="v_h2Y7OwhkYSsYE_teQM-0" />
      </root>
    </mxGraphModel>
  </diagram>
</mxfile>
